<svg xmlns="http://www.w3.org/2000/svg" xmlns:xlink="http://www.w3.org/1999/xlink" width="78.977" height="50.585" viewBox="0 0 78.977 50.585"><defs><clipPath id="a"><rect width="78.977" height="50.585" transform="translate(0 0)" fill="#333"/></clipPath></defs><g transform="translate(0 0)"><g clip-path="url(#a)"><path d="M1.49,8.17V.211h1.6V8.17a2.619,2.619,0,0,0,2.8,2.805A2.62,2.62,0,0,0,8.7,8.17V.211h1.6V8.17A4.176,4.176,0,0,1,5.89,12.5,4.176,4.176,0,0,1,1.49,8.17" fill="#333"/><path d="M20.725.21h1.6V12.29H20.778L15.2,3.085V12.29h-1.6V.21h1.578l5.54,9.169Z" fill="#333"/><path d="M25.97,8.17V.211h1.6V8.17a2.619,2.619,0,0,0,2.8,2.805A2.62,2.62,0,0,0,33.176,8.17V.211h1.6V8.17a4.176,4.176,0,0,1-4.4,4.331,4.176,4.176,0,0,1-4.4-4.331" fill="#333"/><path d="M37.648,8.871h1.577a2.5,2.5,0,0,0,2.683,2.157,2.2,2.2,0,0,0,2.437-2.087c0-1.174-1.069-1.7-2.087-1.964L40.7,6.592c-2.56-.614-2.963-2.121-2.963-3.1A3.711,3.711,0,0,1,41.715,0a3.534,3.534,0,0,1,3.823,3.506H43.96a2.105,2.105,0,0,0-2.3-2.033,2.173,2.173,0,0,0-2.332,2c0,.421.14,1.262,1.753,1.683l1.578.421c2.051.544,3.278,1.6,3.278,3.314A3.74,3.74,0,0,1,41.908,12.5c-2.542,0-4.242-1.753-4.26-3.629" fill="#333"/><path d="M48.712,8.17V.211h1.6V8.17a2.805,2.805,0,1,0,5.61,0V.211h1.6V8.17a4.4,4.4,0,0,1-8.8,0" fill="#333"/><path d="M68.612,12.29l-1.175-3.1H62.248l-1.175,3.1H59.408L64,.21h1.682l4.594,12.08ZM62.774,7.784h4.138L64.842,2.3Z" fill="#333"/><path d="M74.032,10.817h4.944V12.29h-6.54V.21h1.6Z" fill="#333"/><path d="M.631,25.3a6.207,6.207,0,0,1,6.207-6.259,5.973,5.973,0,0,1,4.628,2.069l-2.033,1.7A3.39,3.39,0,0,0,6.838,21.6,3.56,3.56,0,0,0,3.4,25.3a3.651,3.651,0,0,0,3.523,3.787c1.351,0,2.841-.754,2.841-1.946h-3.4V24.915h6.4c0,4.576-2.542,6.628-5.769,6.628A6.206,6.206,0,0,1,.631,25.3" fill="#333"/><path d="M21.111,31.333l-2.77-4.243H17.78v4.243H15.027V19.253h4.944a3.819,3.819,0,0,1,4.068,4,3.868,3.868,0,0,1-2.822,3.682l3.1,4.4ZM17.78,21.655v3.261h1.753a1.566,1.566,0,0,0,1.736-1.6A1.608,1.608,0,0,0,19.6,21.655Z" fill="#333"/><path d="M25.952,25.284a6.164,6.164,0,1,1,6.172,6.259,6.2,6.2,0,0,1-6.172-6.259m9.556,0a3.4,3.4,0,1,0-6.785,0,3.4,3.4,0,1,0,6.785,0" fill="#333"/><path d="M51.886,19.253h3l-4.1,12.08H48.643L47.03,25.2l-1.561,6.137H43.313l-4.068-12.08h2.963l2.227,7.223,1.49-5.505h2.262l1.472,5.54Z" fill="#333"/><path d="M64.915,19.253v2.4H61.724v9.678H58.972V21.655H55.78v-2.4Z" fill="#333"/><path d="M73.822,19.253h2.753v12.08H73.822V26.564H69.843v4.769H67.09V19.253h2.753v4.839h3.979Z" fill="#333"/><path d="M9.2,50.375l-1.175-3.1H2.84l-1.175,3.1H0l4.594-12.08H6.276l4.594,12.08ZM3.366,45.869H7.5l-2.07-5.488Z" fill="#333"/><path d="M11.995,44.361a6.182,6.182,0,0,1,6.118-6.276,6,6,0,0,1,4.069,1.577L21.076,40.7a4.5,4.5,0,0,0-2.963-1.14,4.678,4.678,0,0,0-4.523,4.8,4.631,4.631,0,0,0,4.523,4.751,3.689,3.689,0,0,0,3.963-3.4H18.569V44.326h5.26c0,4.225-2.279,6.259-5.716,6.259a6.147,6.147,0,0,1-6.118-6.224" fill="#333"/><path d="M28.127,48.9h5.716v1.473H26.55V38.3h7.117v1.473h-5.54V43.7h4.839v1.49H28.127Z" fill="#333"/><path d="M43.978,38.3h1.6v12.08H44.03L38.455,41.17v9.205H36.861V38.3h1.577l5.54,9.169Z" fill="#333"/><path d="M48.521,44.361a6.218,6.218,0,0,1,6.136-6.276A5.885,5.885,0,0,1,59.2,40.136l-1.156.982a4.464,4.464,0,0,0-3.385-1.561,4.784,4.784,0,0,0,0,9.555,4.463,4.463,0,0,0,3.385-1.56l1.156.982a5.885,5.885,0,0,1-4.541,2.051,6.173,6.173,0,0,1-6.136-6.224" fill="#333"/><path d="M69.194,38.3h1.911l-4.646,6.5v5.576h-1.6V44.8L60.27,38.3h1.894l3.506,4.944Z" fill="#333"/></g></g></svg>