<svg id="Layer_1" data-name="Layer 1" xmlns="http://www.w3.org/2000/svg" viewBox="0 0 1049.24 352.32"><defs><style>.cls-1{fill:#11758d;}.cls-2{fill:#66acbb;}</style></defs><path class="cls-1" d="M158.57,65.62a6.55,6.55,0,1,0-4.63,1.92,6.64,6.64,0,0,0,4.63-1.92Zm0,0"/><path class="cls-1" d="M1022.07,223.9H173.36a60.43,60.43,0,0,0,23-47.43V133.2A45.76,45.76,0,0,0,195,42.44,45.11,45.11,0,0,0,151.29,8.2a77.23,77.23,0,0,0-27.74,5.1,6.55,6.55,0,1,0,4.68,12.23,64.33,64.33,0,0,1,23.06-4.23,32,32,0,0,1,31.94,31.94v13.6A14.61,14.61,0,0,1,168.6,81.4a6.55,6.55,0,0,0-6.32,8.26,33.59,33.59,0,0,0,20.95,22.71v64.1A47.49,47.49,0,0,1,135.8,223.9H114.06a83.32,83.32,0,0,0,10-39.69V138.54A45.25,45.25,0,0,0,86.71,94V85.87a64.08,64.08,0,0,1,4.38-23.41A6.55,6.55,0,1,0,78.88,57.7a77.26,77.26,0,0,0-5.27,28.17v7.79a45.25,45.25,0,0,0-39.93,44.88V223.9H19.27a6.55,6.55,0,1,0,0,13.1H33.68v24.5a6.55,6.55,0,0,0,6.55,6.55,83.44,83.44,0,0,0,37.3-8.77V337a6.55,6.55,0,0,0,6.55,6.55A65.62,65.62,0,0,0,149.63,278V237H173l29.13,29.13a6.55,6.55,0,0,0,9.27-9.26L191.53,237h830.54a6.55,6.55,0,0,0,0-13.1Zm-844-131.07a27.7,27.7,0,0,0,18.25-26v-11a32.67,32.67,0,0,1,0,64V107.37a6.53,6.53,0,0,0-5.39-6.44,20.39,20.39,0,0,1-12.86-8.1ZM46.78,138.54a32.09,32.09,0,1,1,64.18,0s0,46.57,0,47a12.77,12.77,0,0,1-25.53-.32V153.47a6.55,6.55,0,1,0-13.1,0v31.77a12.77,12.77,0,0,1-25.54,0Zm0,69.18a25.79,25.79,0,0,0,32.09-5.3,25.81,25.81,0,0,0,27.28,7.43,70.9,70.9,0,0,1-59.37,44.8ZM136.53,278a52.54,52.54,0,0,1-45.9,52.05V251.16A84.06,84.06,0,0,0,105.3,237h31.23Zm0,0"/><path class="cls-1" d="M101.14,42A6.55,6.55,0,1,0,96.51,30.8,6.55,6.55,0,0,0,101.14,42Zm0,0"/><path class="cls-1" d="M304.65,177.43a28.33,28.33,0,0,1-6.73,11.21,25.32,25.32,0,0,1-10.51,6.17,46.35,46.35,0,0,1-13.61,1.89,51.71,51.71,0,0,1-8.55-.77,40,40,0,0,1-7.57-1.89,1,1,0,0,1-.56-1l2.24-12.9c.19-.65.56-.89,1.12-.7a36.45,36.45,0,0,0,5.26,1.47,31.85,31.85,0,0,0,6.52.63,21.66,21.66,0,0,0,7-1.05,11.83,11.83,0,0,0,5.26-3.58,16.76,16.76,0,0,0,3.3-6.8A43.45,43.45,0,0,0,289,159.41V101.22c0-.47.28-.7.84-.7h16.4c.56,0,.85.23.85.7v59.31A52.36,52.36,0,0,1,304.65,177.43Z"/><path class="cls-1" d="M394.25,195.72a.9.9,0,0,1-.85-.56l-9.95-27.9H350.64q-2.38,7-4.63,14t-4.62,13.95a.9.9,0,0,1-.85.56L323.3,195c-.66,0-.89-.37-.7-1.12l33.37-93a1.21,1.21,0,0,1,.84-.42h21a1.21,1.21,0,0,1,.84.42l34.21,93a.59.59,0,0,1,0,.77.84.84,0,0,1-.7.35Zm-23-65.76c-1-2.89-1.82-5.26-2.38-7.08s-1.31-3.95-2.25-6.38c-.65,2.25-1.26,4.44-1.82,6.59s-1.26,4.4-2.1,6.73l-8.41,23.56h25.65Z"/><path class="cls-1" d="M488.05,196.42a1.14,1.14,0,0,1-.7-.42l-31.13-44.17q-2.25,2.4-4.42,4.63t-4.27,4.63v33.09a.75.75,0,0,1-.85.84H430.42a.74.74,0,0,1-.84-.84v-93c0-.47.28-.7.84-.7h16.26c.56,0,.85.23.85.7l.42,40.66a17.69,17.69,0,0,1,2-2.73c.56-.61,1.17-1.29,1.82-2l2.11-2.52L483.7,100.1a.94.94,0,0,1,.7-.28l19.63.7a.79.79,0,0,1,.77.42.69.69,0,0,1-.21.84l-35.33,39q9.53,13.19,19.14,26.36t19.14,26.5a.92.92,0,0,1,.07.91.77.77,0,0,1-.77.49Z"/><path class="cls-1" d="M605,167.54a45,45,0,0,1-10.52,15.7,46.8,46.8,0,0,1-15.91,10,55.15,55.15,0,0,1-19.84,3.5,52.41,52.41,0,0,1-19.91-3.64,45.62,45.62,0,0,1-15.36-10,44.44,44.44,0,0,1-9.88-15.14,50.6,50.6,0,0,1-3.51-19,53.49,53.49,0,0,1,3.72-20.26,47.58,47.58,0,0,1,10.3-15.84,45.53,45.53,0,0,1,15.78-10.31,57.42,57.42,0,0,1,40.24,0,45.49,45.49,0,0,1,15.42,10,43.55,43.55,0,0,1,9.82,15.21,52.18,52.18,0,0,1,3.43,19.07A54.44,54.44,0,0,1,605,167.54Zm-73.9-6a33.7,33.7,0,0,0,6,10.8,27.63,27.63,0,0,0,9.47,7.29,29,29,0,0,0,12.62,2.66A29.83,29.83,0,0,0,572,179.6a28.21,28.21,0,0,0,9.6-7.29,32.47,32.47,0,0,0,6-11,43.92,43.92,0,0,0,2.1-13.81,41.79,41.79,0,0,0-2-12.76,33.32,33.32,0,0,0-5.82-10.94,29,29,0,0,0-9.53-7.64,28.42,28.42,0,0,0-13-2.87,29.2,29.2,0,0,0-13.11,2.8,28.16,28.16,0,0,0-9.54,7.57A33,33,0,0,0,531,134.8a45.73,45.73,0,0,0-2,13.53A40.59,40.59,0,0,0,531.09,161.51Zm33.51-18.44a6.19,6.19,0,1,1-8.76,8.76,6.19,6.19,0,0,1,8.76-8.76Z"/><path class="cls-1" d="M750.53,195.72c-.47,0-.71-.28-.71-.84l-2-40c-.19-3.18-.35-6.21-.49-9.11s-.28-5.77-.42-8.63-.26-5.74-.35-8.69-.19-6.05-.28-9.33q-2.52,7.73-5.26,15.71t-6,16.4l-15.84,42.21a.91.91,0,0,1-.84.56H705.66a.89.89,0,0,1-.84-.56l-14.3-41.78q-1.69-4.77-2.95-8.77c-.84-2.66-1.61-5.26-2.31-7.78l-2.11-7.57q-1-3.78-2.17-8.27c0,.56,0,1.4-.07,2.52s-.07,2-.07,2.66q-.29,7.58-.7,15.64t-.84,15.49q-.57,9.67-1.19,19.63t-1.2,19.63c0,.56-.23.84-.7.84l-15.56-.7c-.47,0-.7-.28-.7-.84l6.31-93c0-.47.28-.7.84-.7h22.29a1.21,1.21,0,0,1,.84.42l14.31,39.54q2.79,8,4.76,14.72t4.07,14.3q2-6.72,4.42-14.3T723,140.48l15.43-39.54a1.21,1.21,0,0,1,.84-.42h22c.56,0,.84.23.84.7l5.33,93c0,.56-.23.84-.7.84Z"/><path class="cls-1" d="M790.07,195a.74.74,0,0,1-.84-.84v-93c0-.47.28-.7.84-.7H847c.56,0,.84.23.84.7v13.32a.74.74,0,0,1-.84.84H807.31v23.28H846a.74.74,0,0,1,.84.84v13.18a.74.74,0,0,1-.84.84h-38.7v26.64H851.9a.74.74,0,0,1,.84.84v13.18a.74.74,0,0,1-.84.84Z"/><path class="cls-1" d="M870.69,195a.74.74,0,0,1-.84-.84v-93c0-.47.28-.7.84-.7h56.93c.56,0,.84.23.84.7v13.32a.74.74,0,0,1-.84.84H887.94v23.28h38.69a.75.75,0,0,1,.85.84v13.18a.75.75,0,0,1-.85.84H887.94v26.64h44.58a.74.74,0,0,1,.84.84v13.18a.74.74,0,0,1-.84.84Z"/><path class="cls-1" d="M988.75,115.52v78.66a.74.74,0,0,1-.84.84H971.5a.74.74,0,0,1-.84-.84V115.52H941.08a.74.74,0,0,1-.84-.84V101.22c0-.47.28-.7.84-.7h77.39c.56,0,.84.23.84.7v13.46a.74.74,0,0,1-.84.84Z"/><path class="cls-2" d="M296.77,306.37a18.22,18.22,0,0,1-4.07,6A16.67,16.67,0,0,1,287,316a18,18,0,0,1-6.43,1.2,16.4,16.4,0,0,1-6.69-1.42,14.88,14.88,0,0,1-5.53-4.25c-.05.92-.11,1.77-.18,2.54s-.13,1.63-.18,2.54c0,.3-.17.44-.51.44l-7.34-.72c-.2,0-.29-.17-.29-.51q.14-1.76.18-4.29t0-5.31V264.68a.39.39,0,0,1,.44-.44H269c.29,0,.43.14.43.44l.15,20.42a13.32,13.32,0,0,1,4.91-3.81,18.25,18.25,0,0,1,13.85-.11,15.63,15.63,0,0,1,5.27,3.67,16.68,16.68,0,0,1,3.45,5.71,21.33,21.33,0,0,1,1.24,7.41A21,21,0,0,1,296.77,306.37ZM273.25,289a9,9,0,0,0-3.49,5.2v-.07a10.56,10.56,0,0,0-.29,2.4V301c0,.24,0,.56,0,.94a3.72,3.72,0,0,0,.18,1,8.76,8.76,0,0,0,1.16,2.51,9.16,9.16,0,0,0,2,2.11,10.64,10.64,0,0,0,2.65,1.49,9,9,0,0,0,3.24.58,9.64,9.64,0,0,0,7.48-3q2.78-3,2.77-8.4a13.85,13.85,0,0,0-.66-4.29,10.63,10.63,0,0,0-1.92-3.56,9.07,9.07,0,0,0-3.13-2.4,10.11,10.11,0,0,0-4.33-.87A9.67,9.67,0,0,0,273.25,289Z"/><path class="cls-2" d="M331.34,305.24c-1.35,3.3-2.63,6.2-3.81,8.69s-2.33,4.67-3.42,6.51a40.4,40.4,0,0,1-3.16,4.65,17.93,17.93,0,0,1-3.06,3.05,18.13,18.13,0,0,1-5.34,3,19.14,19.14,0,0,1-4.4,1.06.52.52,0,0,1-.51-.37L306,324.8q-.15-.36.36-.51a15.3,15.3,0,0,0,2.4-.76,20.63,20.63,0,0,0,2.76-1.35,15,15,0,0,0,2.84-2.36,15.11,15.11,0,0,0,2.62-3.67,4.31,4.31,0,0,0,.51-1.31,4,4,0,0,0-.08-.69,4,4,0,0,0-.36-1l-14-31.92c-.1-.39,0-.58.36-.58h9.38a.48.48,0,0,1,.44.29l7.41,19.12c.39,1.07.73,2.06,1,3s.63,1.87,1,2.84c.09-.24.18-.49.25-.73s.16-.53.26-.87c.24-.73.46-1.47.65-2.22a20.67,20.67,0,0,1,.66-2.14l6.61-19a.47.47,0,0,1,.44-.29h9.23c.39,0,.53.19.44.58Z"/><path class="cls-2" d="M406.19,304.63a18.44,18.44,0,0,1-4.4,7.08,17.62,17.62,0,0,1-6.76,4.11,26.72,26.72,0,0,1-8.72,1.35,24.75,24.75,0,0,1-8.08-1.28,16.21,16.21,0,0,1-6.39-4,18.7,18.7,0,0,1-4.22-7.06,31.63,31.63,0,0,1-1.53-10.5V267.66c0-.25.15-.37.44-.37H375c.29,0,.43.12.43.37v27q0,7.56,3.09,11.27a10.13,10.13,0,0,0,8.18,3.71,10.62,10.62,0,0,0,8.58-3.71q3.12-3.71,3.13-11.27v-27c0-.25.14-.37.43-.37h8.44c.29,0,.43.12.43.37v26.68A30.43,30.43,0,0,1,406.19,304.63Z"/><path class="cls-2" d="M447.59,317.75c-.24,0-.39-.07-.43-.22l-.58-1a14.39,14.39,0,0,1-1.09-3,17.34,17.34,0,0,1-.59-4.69V297a12,12,0,0,0-1.74-6.73q-1.74-2.66-5.75-2.65a7.3,7.3,0,0,0-4.94,1.7,9.65,9.65,0,0,0-2.76,3.75,6.05,6.05,0,0,0-.33,1.27,9,9,0,0,0-.11,1.35v20.21a.38.38,0,0,1-.43.44h-8.51a.39.39,0,0,1-.44-.44v-24.5c0-1.94,0-3.75-.07-5.42s-.12-3.28-.22-4.83a.39.39,0,0,1,.44-.44h7.41c.3,0,.44.12.44.36l.51,4.58a12.05,12.05,0,0,1,1.89-2,15.59,15.59,0,0,1,2.65-1.86,15.31,15.31,0,0,1,3.35-1.34,15.13,15.13,0,0,1,4-.51,16.62,16.62,0,0,1,4.73.73,11.34,11.34,0,0,1,4.51,2.58,14.23,14.23,0,0,1,3.38,5,20,20,0,0,1,1.34,7.85v12.8a9.61,9.61,0,0,0,.55,3,23.72,23.72,0,0,0,1,2.69c.31.68.49,1.06.54,1.16.19.34.1.56-.29.66Z"/><path class="cls-2" d="M493.25,317.39a.53.53,0,0,1-.51-.37s-.05-.29-.14-.72-.21-.94-.33-1.5-.21-.95-.25-1.2a6.76,6.76,0,0,1-.19-1.52q0-1,0-1.38a15.44,15.44,0,0,1-1.68,2.22,11.43,11.43,0,0,1-2.54,2.07,15.06,15.06,0,0,1-3.53,1.56,15.68,15.68,0,0,1-4.61.62,16.65,16.65,0,0,1-4.8-.73,11.24,11.24,0,0,1-4.36-2.51,12.77,12.77,0,0,1-3.2-4.9,21.67,21.67,0,0,1-1.24-7.93v-20a.39.39,0,0,1,.44-.44h8.43a.39.39,0,0,1,.44.44v18.46a13.45,13.45,0,0,0,1.67,7.24q1.67,2.65,5.6,2.65a7.59,7.59,0,0,0,4.94-1.64,9.26,9.26,0,0,0,2.84-3.52h-.08a9,9,0,0,0,.37-1.24,7.13,7.13,0,0,0,.14-1.45v-20.5a.39.39,0,0,1,.44-.44h8.51a.38.38,0,0,1,.43.44v24.57a51.78,51.78,0,0,0,.29,5.64,42.19,42.19,0,0,0,.73,4.47q.15.36-.36.51Z"/><path class="cls-2" d="M535.56,310.3a9.87,9.87,0,0,1-2.83,3.6,14.27,14.27,0,0,1-4.76,2.4,23.08,23.08,0,0,1-6.66.87,25.53,25.53,0,0,1-6.43-.77,23.9,23.9,0,0,1-5.13-1.92c-.24-.1-.31-.24-.21-.44l1.81-6.25c.1-.34.32-.41.66-.22a16.39,16.39,0,0,0,4.18,1.85,17.17,17.17,0,0,0,5.2.84,7.71,7.71,0,0,0,4.58-1.05,3.41,3.41,0,0,0-.07-5.53,17.44,17.44,0,0,0-4.73-2.07q-5.46-1.67-8-4.4a8.68,8.68,0,0,1-2.54-6.07,10.07,10.07,0,0,1,1-4.4,10.71,10.71,0,0,1,2.76-3.6,13.16,13.16,0,0,1,4.4-2.4,18.88,18.88,0,0,1,6-.87,24.09,24.09,0,0,1,5.75.65,18.08,18.08,0,0,1,4.29,1.6q.36.22.21.51l-1.67,6c-.1.28-.31.33-.65.14a30.16,30.16,0,0,0-3.28-1.34,13.5,13.5,0,0,0-4.65-.77,5.85,5.85,0,0,0-3.74,1,3.13,3.13,0,0,0-1.27,2.55,3,3,0,0,0,1.59,2.68,26.74,26.74,0,0,0,5,2,19.08,19.08,0,0,1,7.71,4.22,9,9,0,0,1,2.54,6.69A10.64,10.64,0,0,1,535.56,310.3Z"/><path class="cls-2" d="M573.22,317.39a.51.51,0,0,1-.5-.37s-.05-.29-.15-.72-.21-.94-.33-1.5-.2-.95-.25-1.2a6.32,6.32,0,0,1-.18-1.52c0-.68,0-1.14,0-1.38a15.33,15.33,0,0,1-1.67,2.22,11.73,11.73,0,0,1-2.55,2.07,15,15,0,0,1-3.52,1.56,15.75,15.75,0,0,1-4.62.62,16.65,16.65,0,0,1-4.8-.73,11.24,11.24,0,0,1-4.36-2.51,12.77,12.77,0,0,1-3.2-4.9,21.88,21.88,0,0,1-1.24-7.93v-20a.39.39,0,0,1,.44-.44h8.43a.39.39,0,0,1,.44.44v18.46a13.54,13.54,0,0,0,1.67,7.24c1.12,1.77,3,2.65,5.6,2.65a7.61,7.61,0,0,0,5-1.64,9.22,9.22,0,0,0,2.83-3.52h-.07a10.62,10.62,0,0,0,.36-1.24,6.46,6.46,0,0,0,.15-1.45v-20.5a.38.38,0,0,1,.43-.44h8.51a.39.39,0,0,1,.44.44v24.57a49.38,49.38,0,0,0,.29,5.64,40,40,0,0,0,.72,4.47q.15.36-.36.51Z"/><path class="cls-2" d="M614.08,317a.5.5,0,0,1-.5-.36l-1.24-4.51-.44.44-2.58,2a10.68,10.68,0,0,1-3.16,1.71,14.08,14.08,0,0,1-4.29.72,17.24,17.24,0,0,1-2.11-.14c-.73-.1-1.5-.22-2.33-.37a9.27,9.27,0,0,1-3.56-1.38,10.46,10.46,0,0,1-4.18-5.41,10.33,10.33,0,0,1-.54-3.24,11.14,11.14,0,0,1,5.7-10.14q5.71-3.45,16.83-3.46v-.07a9.68,9.68,0,0,0-.21-1.74,5,5,0,0,0-1-2.08,5.91,5.91,0,0,0-2.28-1.67,10.26,10.26,0,0,0-4.15-.69,15.11,15.11,0,0,0-1.71.11c-.6.07-1.2.16-1.78.26-.34.09-.51,0-.51-.37s-.16-1-.33-2-.31-1.82-.43-2.55-.18-1.13-.18-1.23a.52.52,0,0,1,.36-.51c.87-.15,1.81-.27,2.8-.37s2.05-.14,3.16-.14a18.34,18.34,0,0,1,7.56,1.35,13,13,0,0,1,4.77,3.49,12.28,12.28,0,0,1,2.47,4.9,23.08,23.08,0,0,1,.69,5.6v12.14a34.66,34.66,0,0,0,.29,4.58c.19,1.5.41,2.79.65,3.86q.15.51-.36.51Zm-2.18-17.81a44,44,0,0,0-5.12.29,16.44,16.44,0,0,0-4.26,1,7.43,7.43,0,0,0-2.9,2,4.42,4.42,0,0,0-1.09,3,4.3,4.3,0,0,0,1.45,3.53,5.75,5.75,0,0,0,3.78,1.2,8,8,0,0,0,5.09-1.6,8.3,8.3,0,0,0,2.76-3.42,5.49,5.49,0,0,0,.29-1.81Z"/><path class="cls-2" d="M650.07,316.58c0,.25-.14.37-.44.37a22.3,22.3,0,0,1-3.3-.26,23.23,23.23,0,0,1-3.38-.76,18.28,18.28,0,0,1-3.24-1.34,10.61,10.61,0,0,1-2.73-2.08,13.84,13.84,0,0,1-3.56-6.39,36.11,36.11,0,0,1-1-9.16V264.68a.39.39,0,0,1,.44-.44h8.51c.29,0,.43.14.43.44v29.44c0,2,.05,3.77.15,5.2a36,36,0,0,0,.4,3.6,9.28,9.28,0,0,0,.69,2.36,5.38,5.38,0,0,0,1.09,1.56,7.21,7.21,0,0,0,2.91,1.75,14.36,14.36,0,0,0,3.49.72c.29,0,.43.17.43.51Z"/><path class="cls-2" d="M674.86,316.3a.39.39,0,0,1-.44-.44v-48.2c0-.25.15-.37.44-.37h29.52c.29,0,.43.12.43.37v6.9a.38.38,0,0,1-.43.44H683.8v12.07h20.07a.38.38,0,0,1,.44.43v6.84a.38.38,0,0,1-.44.43H683.8v13.82h23.12a.39.39,0,0,1,.44.44v6.83a.39.39,0,0,1-.44.44Z"/><path class="cls-2" d="M743.78,317.75c-.24,0-.38-.07-.43-.22l-.58-1a14.88,14.88,0,0,1-1.1-3,17.76,17.76,0,0,1-.58-4.69V297a12,12,0,0,0-1.74-6.73q-1.74-2.66-5.75-2.65a7.3,7.3,0,0,0-4.94,1.7A9.65,9.65,0,0,0,725.9,293a6.05,6.05,0,0,0-.33,1.27,9,9,0,0,0-.11,1.35v20.21a.38.38,0,0,1-.43.44h-8.51a.39.39,0,0,1-.44-.44v-24.5c0-1.94,0-3.75-.07-5.42s-.12-3.28-.22-4.83a.39.39,0,0,1,.44-.44h7.41c.3,0,.44.12.44.36l.51,4.58a12.05,12.05,0,0,1,1.89-2,15.59,15.59,0,0,1,2.65-1.86,15.31,15.31,0,0,1,3.35-1.34,15.13,15.13,0,0,1,4-.51,16.62,16.62,0,0,1,4.73.73,11.34,11.34,0,0,1,4.51,2.58,14.23,14.23,0,0,1,3.38,5,20,20,0,0,1,1.34,7.85v12.8a9.61,9.61,0,0,0,.55,3,23.72,23.72,0,0,0,1,2.69c.31.68.49,1.06.54,1.16.19.34.1.56-.29.66Z"/><path class="cls-2" d="M759,280.82a.4.4,0,0,1,.29-.15h4.14v-6.11a.47.47,0,0,1,.29-.43L772,271.8c.39-.1.58.05.58.44v8.43h8.73a.38.38,0,0,1,.43.44l-.36,6.39a.39.39,0,0,1-.44.44h-8.36v15a10.37,10.37,0,0,0,.91,4.72c.61,1.17,1.78,1.75,3.53,1.75a16.88,16.88,0,0,0,2.11-.11,8,8,0,0,0,1.6-.4c.38-.1.58.05.58.43l.22,6.4a.47.47,0,0,1-.29.44,12.94,12.94,0,0,1-2.8.73,25.23,25.23,0,0,1-4,.29,12.21,12.21,0,0,1-4.76-.87,9.28,9.28,0,0,1-3.31-2.26,10.35,10.35,0,0,1-2.25-4.22,21.31,21.31,0,0,1-.73-5.81V287.94h-5.23a.59.59,0,0,1-.29-.07.23.23,0,0,1-.15-.22v-5.74a2.32,2.32,0,0,1,.07-.8Z"/><path class="cls-2" d="M822.88,299.39a7.6,7.6,0,0,1-.21,1.42c-.1.24-.25.36-.44.36H796.71a8.42,8.42,0,0,0,1.38,3.56,10.79,10.79,0,0,0,2.66,2.73,13.17,13.17,0,0,0,7.59,2.44,40.12,40.12,0,0,0,4.29-.22c.34,0,.51.1.51.29l1,6.18a.52.52,0,0,1-.37.51,16.26,16.26,0,0,1-3.16.43c-1.09.05-2.19.08-3.31.08a24.17,24.17,0,0,1-8.21-1.31,17.52,17.52,0,0,1-6.15-3.67,15.5,15.5,0,0,1-3.81-5.71,20,20,0,0,1-1.31-7.42,22,22,0,0,1,1.16-7,18.59,18.59,0,0,1,3.49-6.18,17,17,0,0,1,5.82-4.36,19,19,0,0,1,8.14-1.64,16.39,16.39,0,0,1,8.07,1.78,15.37,15.37,0,0,1,5.09,4.4,16.43,16.43,0,0,1,2.65,5.67,23.23,23.23,0,0,1,.77,5.6C823,298.09,822.93,298.79,822.88,299.39ZM802,287.18a8.51,8.51,0,0,0-4.4,4.5,13.63,13.63,0,0,0-.8,2.73h17.31a14,14,0,0,0-.44-2.33,8.17,8.17,0,0,0-1.27-2.65,7.41,7.41,0,0,0-2.47-2.14,8.17,8.17,0,0,0-4-.88A9.12,9.12,0,0,0,802,287.18Z"/><path class="cls-2" d="M852.4,288.74a16,16,0,0,0-2.69-.22,7.48,7.48,0,0,0-5.34,2,9.85,9.85,0,0,0-2.8,4.88,6.07,6.07,0,0,0-.18,1.27c0,.46,0,.86,0,1.2v18a.39.39,0,0,1-.44.44h-8.5a.39.39,0,0,1-.44-.44V292.74c0-2.47,0-4.62-.07-6.43s-.12-3.55-.22-5.2a.39.39,0,0,1,.44-.44h7.41a.39.39,0,0,1,.44.44l.36,5.23a11.54,11.54,0,0,1,4.44-4.87,11,11,0,0,1,5.59-1.6c.49,0,.89,0,1.21,0a5.78,5.78,0,0,1,1,.18.35.35,0,0,1,.29.36v7.93Z"/><path class="cls-2" d="M897.62,306.26a17.72,17.72,0,0,1-4,6,17.27,17.27,0,0,1-5.67,3.63,17.84,17.84,0,0,1-6.51,1.24,16.63,16.63,0,0,1-6.4-1.24,13.19,13.19,0,0,1-4.87-3.34c-.1.87-.25,2.15-.47,3.85s-.43,3.44-.62,5.23-.36,3.46-.51,5-.22,2.55-.22,3.08a1.25,1.25,0,0,1-1,1.35,4.55,4.55,0,0,1-1.89.11,5.63,5.63,0,0,1-1-.22l-2.08-.18c-.7-.07-1.36-.14-2-.18-.39,0-.54-.17-.44-.51.24-1.55.42-2.83.54-3.82s.25-2,.37-2.94a19.54,19.54,0,0,0,.18-2.11v-10c0-2.14,0-4.29,0-6.47s0-4.15,0-5.89v-6.11c0-2.18,0-4.13-.08-5.85s-.12-3.43-.21-5.13c0-.29.12-.43.36-.43l7.56-1.39c.29,0,.44.08.44.37l.51,5.45a16.82,16.82,0,0,1,5.59-4.32,17.19,17.19,0,0,1,7.64-1.64,16.06,16.06,0,0,1,6.25,1.24,15.17,15.17,0,0,1,5.24,3.6,17.65,17.65,0,0,1,3.59,5.67,19.55,19.55,0,0,1,1.35,7.45A21.57,21.57,0,0,1,897.62,306.26Zm-20.83-18.5a8.94,8.94,0,0,0-2.72,1.42,9.22,9.22,0,0,0-2.11,2.25,9.86,9.86,0,0,0-1.31,2.91,7.9,7.9,0,0,0-.36,2.18v4.36a11.42,11.42,0,0,0,.21,2.18,7.48,7.48,0,0,0,1.13,2.55,10.1,10.1,0,0,0,2,2.18,9.59,9.59,0,0,0,2.65,1.52,8.84,8.84,0,0,0,3.24.59,9.56,9.56,0,0,0,7.49-3.09q2.76-3.09,2.76-8.55a13.58,13.58,0,0,0-.65-4.18,10.56,10.56,0,0,0-1.93-3.52,9,9,0,0,0-3.13-2.4,10.44,10.44,0,0,0-7.27-.4Z"/><path class="cls-2" d="M928.81,288.74a16,16,0,0,0-2.69-.22,7.48,7.48,0,0,0-5.34,2,9.85,9.85,0,0,0-2.8,4.88,6.07,6.07,0,0,0-.18,1.27c0,.46,0,.86,0,1.2v18a.38.38,0,0,1-.43.44h-8.51a.39.39,0,0,1-.44-.44V292.74c0-2.47,0-4.62-.07-6.43s-.12-3.55-.22-5.2a.39.39,0,0,1,.44-.44h7.41a.39.39,0,0,1,.44.44l.36,5.23a11.54,11.54,0,0,1,4.44-4.87,11,11,0,0,1,5.6-1.6c.48,0,.88,0,1.2,0a5.78,5.78,0,0,1,1,.18.35.35,0,0,1,.29.36v7.93Z"/><path class="cls-2" d="M945.86,274.31a5.4,5.4,0,0,1-4.11,1.56,5.15,5.15,0,0,1-5.45-5.23,5.15,5.15,0,0,1,1.49-3.67,6,6,0,0,1,8,0,5.46,5.46,0,0,1,1.53,3.71A5.16,5.16,0,0,1,945.86,274.31Zm-8.32,42a.39.39,0,0,1-.44-.44V281.11a.39.39,0,0,1,.44-.44H946a.39.39,0,0,1,.44.44v34.75a.39.39,0,0,1-.44.44Z"/><path class="cls-2" d="M981.81,310.3a9.87,9.87,0,0,1-2.83,3.6,14.23,14.23,0,0,1-4.77,2.4,23,23,0,0,1-6.65.87,25.53,25.53,0,0,1-6.43-.77,23.9,23.9,0,0,1-5.13-1.92c-.24-.1-.31-.24-.22-.44l1.82-6.25c.1-.34.32-.41.66-.22a16.23,16.23,0,0,0,4.18,1.85,17.1,17.1,0,0,0,5.19.84,7.74,7.74,0,0,0,4.59-1.05,3.4,3.4,0,0,0-.08-5.53,17.21,17.21,0,0,0-4.72-2.07q-5.46-1.67-8-4.4a8.69,8.69,0,0,1-2.55-6.07,10.08,10.08,0,0,1,1-4.4,10.71,10.71,0,0,1,2.76-3.6,13.07,13.07,0,0,1,4.4-2.4,18.83,18.83,0,0,1,6-.87,24,24,0,0,1,5.74.65,17.75,17.75,0,0,1,4.29,1.6c.24.15.32.32.22.51l-1.67,6c-.1.28-.32.33-.66.14a29,29,0,0,0-3.27-1.34,13.5,13.5,0,0,0-4.65-.77,5.85,5.85,0,0,0-3.74,1A3.14,3.14,0,0,0,966,290.2a3,3,0,0,0,1.6,2.68,26.74,26.74,0,0,0,5,2,19,19,0,0,1,7.7,4.22,9,9,0,0,1,2.55,6.69A10.64,10.64,0,0,1,981.81,310.3Z"/><path class="cls-2" d="M1024.71,299.39a7.46,7.46,0,0,1-.22,1.42c-.1.24-.24.36-.44.36H998.53a8.44,8.44,0,0,0,1.39,3.56,10.75,10.75,0,0,0,2.65,2.73,12.94,12.94,0,0,0,3.52,1.78,12.73,12.73,0,0,0,4.08.66,40.4,40.4,0,0,0,4.29-.22c.33,0,.5.1.5.29l.95,6.18a.52.52,0,0,1-.36.51,16.47,16.47,0,0,1-3.17.43c-1.09.05-2.19.08-3.3.08a24.19,24.19,0,0,1-8.22-1.31,17.47,17.47,0,0,1-6.14-3.67,15.4,15.4,0,0,1-3.82-5.71,20.25,20.25,0,0,1-1.31-7.42,21.71,21.71,0,0,1,1.17-7,18.4,18.4,0,0,1,3.48-6.18,17,17,0,0,1,5.82-4.36,19,19,0,0,1,8.14-1.64,16.39,16.39,0,0,1,8.07,1.78,15.27,15.27,0,0,1,5.09,4.4,16.45,16.45,0,0,1,2.66,5.67,23.18,23.18,0,0,1,.76,5.6C1024.78,298.09,1024.75,298.79,1024.71,299.39Zm-20.91-12.21a8.7,8.7,0,0,0-2.72,1.92,8.34,8.34,0,0,0-1.67,2.58,12.43,12.43,0,0,0-.8,2.73h17.3a13,13,0,0,0-.44-2.33,8,8,0,0,0-1.27-2.65,7.32,7.32,0,0,0-2.47-2.14,8.14,8.14,0,0,0-4-.88A9.15,9.15,0,0,0,1003.8,287.18Z"/></svg>