<svg width="75" height="71" viewBox="0 0 75 71" fill="none" xmlns="http://www.w3.org/2000/svg">
<path d="M47.2361 15.7409C48.1836 15.4907 48.7444 14.5226 48.494 13.5816C48.2435 12.6352 47.2743 12.075 46.3323 12.3252L20.1196 19.2381C19.1722 19.4883 18.6113 20.4564 18.8618 21.3974C19.0687 22.1915 19.7874 22.7136 20.5715 22.7136C20.724 22.7136 20.8765 22.6973 21.0235 22.6538L47.2361 15.7409Z" fill="white"/>
<path d="M49.4468 23.7897C50.3943 23.5395 50.9551 22.5714 50.7047 21.6304C50.4542 20.6841 49.4795 20.1239 48.543 20.374L22.3303 27.2869C21.3828 27.5371 20.822 28.5053 21.0725 29.4462C21.2794 30.2403 21.9981 30.7624 22.7822 30.7624C22.9347 30.7624 23.0872 30.7461 23.2342 30.7026L49.4468 23.7897Z" fill="white"/>
<path d="M50.7482 28.4239L24.5356 35.3368C23.5881 35.5869 23.0273 36.5551 23.2777 37.496C23.4847 38.2901 24.2034 38.8122 24.9875 38.8122C25.14 38.8122 25.2924 38.7959 25.4394 38.7524L51.6521 31.8395C52.5995 31.5893 53.1604 30.6212 52.9099 29.6802C52.6594 28.7339 51.6902 28.1737 50.7482 28.4239Z" fill="white"/>
<path d="M74.3472 30.9369C74.3472 30.8771 74.3418 30.8173 74.3309 30.7574C74.32 30.6867 74.2982 30.616 74.2764 30.5508C74.2601 30.5018 74.2492 30.4529 74.2329 30.4039C74.2002 30.3169 74.1512 30.2353 74.1022 30.1537C74.0858 30.1265 74.075 30.0993 74.0586 30.0721C73.9878 29.9688 73.9116 29.8763 73.8245 29.7947C73.819 29.7893 73.8136 29.7784 73.8082 29.773L67.9874 24.3068C67.274 23.6379 66.1524 23.6705 65.4826 24.383C64.8129 25.0955 64.8455 26.2159 65.5588 26.8849L69.7352 30.8064L68.8967 31.3503L64.2194 34.3852L61.8562 25.7808L55.1424 1.3001C54.8865 0.364602 53.9172 -0.190171 52.9807 0.0600206L31.0751 5.83618L7.54142 12.042C7.08403 12.1617 6.69743 12.4608 6.45785 12.8687C6.22371 13.2767 6.15837 13.7662 6.28361 14.2176L9.13683 24.5625L8.51065 22.2836L0.555373 29.773C0.555373 29.773 0.544483 29.7893 0.539038 29.7947C0.451916 29.8818 0.37024 29.9742 0.304899 30.0721C0.288564 30.0993 0.277674 30.1265 0.261338 30.1537C0.212333 30.2353 0.168772 30.3114 0.136101 30.3985C0.114321 30.4474 0.103431 30.4964 0.0925406 30.5453C0.0707602 30.616 0.0489799 30.6813 0.0380897 30.752C0.0271995 30.8118 0.0217544 30.8717 0.0217544 30.9315C0.0217544 30.975 0.0108643 31.0131 0.0108643 31.0566V68.9225C0.0108643 68.9225 0.0108643 68.9552 0.0108643 68.9769C0.0108643 69.0422 0.0217544 69.102 0.0271995 69.1673C0.0326446 69.2217 0.0380897 69.2761 0.054425 69.325C0.0653151 69.3794 0.0870955 69.4338 0.103431 69.4882C0.119766 69.5426 0.141546 69.6024 0.163327 69.6568C0.185107 69.7057 0.212333 69.7492 0.239558 69.7928C0.272229 69.8471 0.304899 69.907 0.343015 69.9614C0.353905 69.9777 0.35935 69.9886 0.37024 70.0049C0.386575 70.0266 0.408356 70.0429 0.430136 70.0647C0.484587 70.13 0.544483 70.1898 0.609824 70.2496C0.64794 70.2823 0.68061 70.3095 0.718726 70.3421C0.784067 70.391 0.854853 70.4346 0.925639 70.4726C0.963755 70.4944 1.00187 70.5161 1.03999 70.5379C1.12166 70.576 1.21423 70.6032 1.30135 70.6303C1.33402 70.6412 1.36125 70.6521 1.39392 70.6575C1.51371 70.6847 1.64439 70.7011 1.76963 70.7011H72.5884C72.7191 70.7011 72.8444 70.6847 72.9642 70.6575C72.9968 70.6521 73.0241 70.6358 73.0513 70.6303C73.1439 70.6032 73.231 70.576 73.3126 70.5379C73.3508 70.5216 73.3889 70.4944 73.427 70.4781C73.4978 70.44 73.5686 70.3965 73.6339 70.3475C73.672 70.3203 73.7047 70.2877 73.7428 70.2551C73.8081 70.2007 73.868 70.1408 73.9225 70.0756C73.9388 70.0538 73.9606 70.0429 73.9769 70.0212C73.9878 70.0049 73.9987 69.9885 74.0096 69.9722C74.0477 69.9178 74.0804 69.8635 74.1131 69.8036C74.1403 69.7601 74.1675 69.7112 74.1893 69.6677C74.2165 69.6133 74.2329 69.5589 74.2546 69.499C74.271 69.4447 74.2928 69.3903 74.3037 69.3359C74.3145 69.2815 74.3254 69.2271 74.3309 69.1727C74.3418 69.1074 74.3472 69.0476 74.3472 68.9824C74.3472 68.9606 74.3527 68.9443 74.3527 68.9225V31.062C74.3527 31.0185 74.3418 30.9804 74.3418 30.9369H74.3472ZM11.8322 67.1549H6.98058L14.0646 61.7214C14.8378 61.1285 14.9849 60.0135 14.3913 59.2412C13.7978 58.4689 12.687 58.322 11.9084 58.9149L3.53928 65.3328V34.3199L15.2353 41.9073L26.0547 48.9235L36.2316 55.5264C36.5256 55.7168 36.8578 55.8092 37.1954 55.8092C37.533 55.8092 37.876 55.7113 38.17 55.5155L45.9837 50.3594L67.4537 67.1549H11.8322ZM65.2049 37.9695L70.8188 34.3254V65.2947L47.2525 46.8567C46.9094 46.5848 46.4956 46.4706 46.0872 46.4923C45.7169 46.4706 45.3358 46.5576 45.0036 46.7751L37.1954 51.9313L27.9877 45.9593L17.1683 38.943L5.40695 31.3122L4.6283 30.8064L9.58333 26.1506L10.6723 30.0939C10.8902 30.8771 11.6035 31.3938 12.3767 31.3938C12.5346 31.3938 12.6925 31.372 12.8504 31.3285C13.7924 31.0675 14.3478 30.0939 14.0864 29.1529L10.1823 15.0062L31.9844 9.25728L52.1912 3.92711L58.4421 26.7163L61.1048 36.4085L58.9812 37.79C58.159 38.323 57.9303 39.4162 58.4639 40.2375C58.8015 40.7597 59.3732 41.0425 59.9504 41.0425C60.2826 41.0425 60.6147 40.95 60.9142 40.7542L62.0903 39.9873L65.2049 37.964V37.9695Z" fill="white"/>
</svg>
