<svg width="201" height="71" viewBox="0 0 201 71" fill="none" xmlns="http://www.w3.org/2000/svg">
<g clip-path="url(#clip0_197_988)">
<path d="M89.2014 23.9531H95.2672C98.0333 23.9531 100.037 24.3447 101.284 25.1334C102.531 25.9166 103.157 27.1675 103.157 28.8808C103.157 30.0447 102.885 30.9966 102.34 31.7417C101.796 32.4868 101.066 32.9328 100.162 33.0851V33.2156C101.398 33.493 102.286 34.0043 102.836 34.7603C103.38 35.5163 103.653 36.5171 103.653 37.768C103.653 39.5411 103.01 40.9281 101.725 41.9234C100.44 42.9187 98.6976 43.4137 96.4924 43.4137H89.2014V23.9531ZM93.3342 31.6601H95.7355C96.8572 31.6601 97.6631 31.4861 98.1695 31.1434C98.6704 30.7953 98.9209 30.2242 98.9209 29.4247C98.9209 28.6796 98.6486 28.1466 98.1041 27.8202C97.5596 27.4939 96.6939 27.3361 95.5123 27.3361H93.3397V31.6601H93.3342ZM93.3342 34.9344V40.0035H96.0241C97.1621 40.0035 98.0007 39.7859 98.5397 39.3508C99.0788 38.9157 99.3511 38.2521 99.3511 37.3547C99.3511 35.7393 98.1967 34.9344 95.888 34.9344H93.3288H93.3342Z" fill="white"/>
<path d="M119.738 43.4137H106.119V40.5528L111.009 35.6143C112.457 34.1349 113.405 33.1069 113.846 32.5304C114.292 31.9593 114.608 31.4263 114.804 30.9422C115 30.4527 115.098 29.9469 115.098 29.4247C115.098 28.6415 114.88 28.065 114.45 27.6788C114.02 27.2981 113.443 27.1078 112.724 27.1078C111.967 27.1078 111.238 27.2818 110.524 27.6245C109.811 27.9725 109.071 28.4621 108.297 29.1038L106.059 26.4551C107.018 25.6392 107.813 25.0627 108.444 24.7255C109.076 24.3883 109.762 24.1272 110.508 23.9477C111.254 23.7682 112.087 23.6758 113.013 23.6758C114.227 23.6758 115.305 23.8988 116.236 24.3393C117.167 24.7853 117.892 25.4054 118.409 26.2049C118.926 27.0044 119.182 27.9182 119.182 28.9461C119.182 29.8435 119.024 30.6811 118.708 31.4698C118.393 32.253 117.903 33.058 117.244 33.8847C116.585 34.7114 115.414 35.8862 113.748 37.4146L111.243 39.7696V39.9545H119.732V43.4137H119.738Z" fill="white"/>
<path d="M136.465 30.023C136.465 32.117 135.811 33.7215 134.499 34.831C133.187 35.9406 131.325 36.4953 128.907 36.4953H127.132V43.4191H122.999V23.9531H129.223C131.586 23.9531 133.383 24.4589 134.613 25.476C135.844 26.4931 136.459 28.0051 136.459 30.023H136.465ZM127.137 33.1123H128.499C129.767 33.1123 130.72 32.8621 131.352 32.3617C131.983 31.8614 132.299 31.1325 132.299 30.1698C132.299 29.2071 132.032 28.4892 131.504 28.0269C130.976 27.5646 130.148 27.3361 129.021 27.3361H127.143V33.1123H127.137Z" fill="white"/>
<path d="M143.179 35.946V43.4137H139.046V23.9531H144.725C147.371 23.9531 149.332 24.4372 150.6 25.3999C151.869 26.3626 152.506 27.8257 152.506 29.7837C152.506 30.9259 152.19 31.9484 151.559 32.8404C150.927 33.7323 150.034 34.4285 148.88 34.9344C151.809 39.3073 153.72 42.1355 154.608 43.4137H150.023L145.373 35.946H143.173H143.179ZM143.179 32.5902H144.513C145.819 32.5902 146.783 32.3726 147.404 31.9375C148.025 31.5024 148.335 30.8171 148.335 29.887C148.335 28.957 148.019 28.3097 147.382 27.9181C146.745 27.5265 145.765 27.3307 144.431 27.3307H143.179V32.5902Z" fill="white"/>
<path d="M168.569 43.4137H157.347V23.9531H168.569V27.3361H161.479V31.6112H168.074V34.9942H161.479V40.0143H168.569V43.4245V43.4137Z" fill="white"/>
<path d="M184.703 38.0078C184.703 39.7646 184.071 41.1515 182.802 42.1632C181.534 43.1748 179.775 43.6806 177.521 43.6806C175.441 43.6806 173.6 43.289 172.005 42.5113V38.6768C173.317 39.2642 174.433 39.6776 175.343 39.9169C176.252 40.1562 177.085 40.2759 177.842 40.2759C178.746 40.2759 179.443 40.1018 179.927 39.7592C180.412 39.4111 180.652 38.8998 180.652 38.2145C180.652 37.8338 180.543 37.4911 180.33 37.1974C180.118 36.8983 179.802 36.6155 179.394 36.3381C178.98 36.0607 178.136 35.6256 176.867 35.0218C175.675 34.4616 174.782 33.9286 174.188 33.4119C173.595 32.8952 173.116 32.2969 172.762 31.6171C172.408 30.9318 172.228 30.1377 172.228 29.2185C172.228 27.4998 172.811 26.1455 173.981 25.161C175.147 24.1766 176.764 23.6816 178.828 23.6816C179.84 23.6816 180.81 23.8013 181.724 24.0406C182.645 24.2799 183.603 24.6171 184.61 25.0523L183.276 28.2612C182.236 27.837 181.376 27.5379 180.695 27.3692C180.015 27.2006 179.345 27.1136 178.691 27.1136C177.907 27.1136 177.308 27.2931 176.895 27.6575C176.475 28.0219 176.268 28.4951 176.268 29.0825C176.268 29.4469 176.35 29.7624 176.524 30.0343C176.693 30.3063 176.96 30.5673 177.33 30.8175C177.7 31.0732 178.572 31.5246 179.949 32.1827C181.768 33.0529 183.02 33.9232 183.695 34.7988C184.371 35.6745 184.708 36.746 184.708 38.0133L184.703 38.0078Z" fill="white"/>
<path d="M200.298 38.0078C200.298 39.7646 199.666 41.1515 198.397 42.1632C197.129 43.1748 195.37 43.6806 193.115 43.6806C191.035 43.6806 189.195 43.289 187.6 42.5113V38.6768C188.912 39.2642 190.028 39.6776 190.937 39.9169C191.847 40.1562 192.68 40.2759 193.437 40.2759C194.341 40.2759 195.038 40.1018 195.522 39.7592C196.007 39.4111 196.246 38.8998 196.246 38.2145C196.246 37.8338 196.138 37.4911 195.925 37.1974C195.713 36.8983 195.397 36.6155 194.989 36.3381C194.575 36.0607 193.731 35.6256 192.462 35.0218C191.27 34.4616 190.377 33.9286 189.783 33.4119C189.19 32.8952 188.71 32.2969 188.356 31.6171C188.003 30.9318 187.823 30.1377 187.823 29.2185C187.823 27.4998 188.405 26.1455 189.576 25.161C190.741 24.1766 192.359 23.6816 194.422 23.6816C195.435 23.6816 196.404 23.8013 197.319 24.0406C198.239 24.2799 199.198 24.6171 200.205 25.0523L198.871 28.2612C197.831 27.837 196.971 27.5379 196.29 27.3692C195.609 27.2006 194.94 27.1136 194.286 27.1136C193.502 27.1136 192.903 27.2931 192.489 27.6575C192.07 28.0219 191.863 28.4951 191.863 29.0825C191.863 29.4469 191.945 29.7624 192.119 30.0343C192.288 30.3063 192.555 30.5673 192.925 30.8175C193.295 31.0732 194.166 31.5246 195.544 32.1827C197.363 33.0529 198.615 33.9232 199.29 34.7988C199.965 35.6745 200.303 36.746 200.303 38.0133L200.298 38.0078Z" fill="white"/>
<path d="M47.2361 15.7409C48.1836 15.4907 48.7444 14.5226 48.494 13.5816C48.2435 12.6352 47.2743 12.075 46.3323 12.3252L20.1196 19.2381C19.1722 19.4883 18.6113 20.4564 18.8618 21.3974C19.0687 22.1915 19.7874 22.7136 20.5715 22.7136C20.724 22.7136 20.8765 22.6973 21.0235 22.6538L47.2361 15.7409Z" fill="white"/>
<path d="M49.4468 23.7897C50.3943 23.5395 50.9551 22.5714 50.7047 21.6304C50.4542 20.6841 49.4795 20.1239 48.543 20.374L22.3303 27.2869C21.3828 27.5371 20.822 28.5053 21.0725 29.4462C21.2794 30.2403 21.9981 30.7624 22.7822 30.7624C22.9347 30.7624 23.0872 30.7461 23.2342 30.7026L49.4468 23.7897Z" fill="white"/>
<path d="M50.7482 28.4239L24.5356 35.3368C23.5881 35.5869 23.0273 36.5551 23.2777 37.496C23.4847 38.2901 24.2034 38.8122 24.9875 38.8122C25.14 38.8122 25.2924 38.7959 25.4394 38.7524L51.6521 31.8395C52.5995 31.5893 53.1604 30.6212 52.9099 29.6802C52.6594 28.7339 51.6902 28.1737 50.7482 28.4239Z" fill="white"/>
<path d="M74.3472 30.9369C74.3472 30.8771 74.3418 30.8173 74.3309 30.7574C74.32 30.6867 74.2982 30.616 74.2764 30.5508C74.2601 30.5018 74.2492 30.4529 74.2329 30.4039C74.2002 30.3169 74.1512 30.2353 74.1022 30.1537C74.0858 30.1265 74.075 30.0993 74.0586 30.0721C73.9878 29.9688 73.9116 29.8763 73.8245 29.7947C73.819 29.7893 73.8136 29.7784 73.8082 29.773L67.9874 24.3068C67.274 23.6379 66.1524 23.6705 65.4826 24.383C64.8129 25.0955 64.8455 26.2159 65.5588 26.8849L69.7352 30.8064L68.8967 31.3503L64.2194 34.3852L61.8562 25.7808L55.1424 1.3001C54.8865 0.364602 53.9172 -0.190171 52.9807 0.0600206L31.0751 5.83618L7.54142 12.042C7.08403 12.1617 6.69743 12.4608 6.45785 12.8687C6.22371 13.2767 6.15837 13.7662 6.28361 14.2176L9.13683 24.5625L8.51065 22.2836L0.555373 29.773C0.555373 29.773 0.544483 29.7893 0.539038 29.7947C0.451916 29.8818 0.37024 29.9742 0.304899 30.0721C0.288564 30.0993 0.277674 30.1265 0.261338 30.1537C0.212333 30.2353 0.168772 30.3114 0.136101 30.3985C0.114321 30.4474 0.103431 30.4964 0.0925406 30.5453C0.0707602 30.616 0.0489799 30.6813 0.0380897 30.752C0.0271995 30.8118 0.0217544 30.8717 0.0217544 30.9315C0.0217544 30.975 0.0108643 31.0131 0.0108643 31.0566V68.9225C0.0108643 68.9225 0.0108643 68.9552 0.0108643 68.9769C0.0108643 69.0422 0.0217544 69.102 0.0271995 69.1673C0.0326446 69.2217 0.0380897 69.2761 0.054425 69.325C0.0653151 69.3794 0.0870955 69.4338 0.103431 69.4882C0.119766 69.5426 0.141546 69.6024 0.163327 69.6568C0.185107 69.7057 0.212333 69.7492 0.239558 69.7928C0.272229 69.8471 0.304899 69.907 0.343015 69.9614C0.353905 69.9777 0.35935 69.9886 0.37024 70.0049C0.386575 70.0266 0.408356 70.0429 0.430136 70.0647C0.484587 70.13 0.544483 70.1898 0.609824 70.2496C0.64794 70.2823 0.68061 70.3095 0.718726 70.3421C0.784067 70.391 0.854853 70.4346 0.925639 70.4726C0.963755 70.4944 1.00187 70.5161 1.03999 70.5379C1.12166 70.576 1.21423 70.6032 1.30135 70.6303C1.33402 70.6412 1.36125 70.6521 1.39392 70.6575C1.51371 70.6847 1.64439 70.7011 1.76963 70.7011H72.5884C72.7191 70.7011 72.8444 70.6847 72.9642 70.6575C72.9968 70.6521 73.0241 70.6358 73.0513 70.6303C73.1439 70.6032 73.231 70.576 73.3126 70.5379C73.3508 70.5216 73.3889 70.4944 73.427 70.4781C73.4978 70.44 73.5686 70.3965 73.6339 70.3475C73.672 70.3203 73.7047 70.2877 73.7428 70.2551C73.8081 70.2007 73.868 70.1408 73.9225 70.0756C73.9388 70.0538 73.9606 70.0429 73.9769 70.0212C73.9878 70.0049 73.9987 69.9885 74.0096 69.9722C74.0477 69.9178 74.0804 69.8635 74.1131 69.8036C74.1403 69.7601 74.1675 69.7112 74.1893 69.6677C74.2165 69.6133 74.2329 69.5589 74.2546 69.499C74.271 69.4447 74.2928 69.3903 74.3037 69.3359C74.3145 69.2815 74.3254 69.2271 74.3309 69.1727C74.3418 69.1074 74.3472 69.0476 74.3472 68.9824C74.3472 68.9606 74.3527 68.9443 74.3527 68.9225V31.062C74.3527 31.0185 74.3418 30.9804 74.3418 30.9369H74.3472ZM11.8322 67.1549H6.98058L14.0646 61.7214C14.8378 61.1285 14.9849 60.0135 14.3913 59.2412C13.7978 58.4689 12.687 58.322 11.9084 58.9149L3.53928 65.3328V34.3199L15.2353 41.9073L26.0547 48.9235L36.2316 55.5264C36.5256 55.7168 36.8578 55.8092 37.1954 55.8092C37.533 55.8092 37.876 55.7113 38.17 55.5155L45.9837 50.3594L67.4537 67.1549H11.8322ZM65.2049 37.9695L70.8188 34.3254V65.2947L47.2525 46.8567C46.9094 46.5848 46.4956 46.4706 46.0872 46.4923C45.7169 46.4706 45.3358 46.5576 45.0036 46.7751L37.1954 51.9313L27.9877 45.9593L17.1683 38.943L5.40695 31.3122L4.6283 30.8064L9.58333 26.1506L10.6723 30.0939C10.8902 30.8771 11.6035 31.3938 12.3767 31.3938C12.5346 31.3938 12.6925 31.372 12.8504 31.3285C13.7924 31.0675 14.3478 30.0939 14.0864 29.1529L10.1823 15.0062L31.9844 9.25728L52.1912 3.92711L58.4421 26.7163L61.1048 36.4085L58.9812 37.79C58.159 38.323 57.9303 39.4162 58.4639 40.2375C58.8015 40.7597 59.3732 41.0425 59.9504 41.0425C60.2826 41.0425 60.6147 40.95 60.9142 40.7542L62.0903 39.9873L65.2049 37.964V37.9695Z" fill="white"/>
<path d="M96.634 66.3336C96.634 67.7858 96.2692 68.928 95.5341 69.7547C94.799 70.5869 93.7808 71.0002 92.4685 71.0002C91.1562 71.0002 90.0999 70.5923 89.3757 69.7765C88.6515 68.9606 88.2867 67.8076 88.2867 66.3173C88.2867 64.827 88.6515 63.6957 89.3811 62.8853C90.1108 62.0749 91.1454 61.667 92.4848 61.667C93.8243 61.667 94.8045 62.0804 95.5395 62.9071C96.2746 63.7338 96.6394 64.876 96.6394 66.3282L96.634 66.3336ZM89.4029 66.3336C89.4029 67.5628 89.6643 68.4929 90.187 69.1292C90.7097 69.7656 91.4721 70.081 92.4685 70.081C93.465 70.081 94.2327 69.7656 94.7446 69.1347C95.2564 68.5037 95.5123 67.5683 95.5123 66.339C95.5123 65.1098 95.2564 64.1961 94.7446 63.5652C94.2327 62.9343 93.4759 62.6188 92.474 62.6188C91.4721 62.6188 90.7043 62.9343 90.1816 63.5706C89.6588 64.207 89.3975 65.1262 89.3975 66.339L89.4029 66.3336Z" fill="white"/>
<path d="M105.368 70.8755H104.165L99.2041 63.2664H99.1551C99.2204 64.1584 99.2531 64.9796 99.2531 65.7193V70.87H98.2784V61.8033H99.4709L104.421 69.3797H104.47C104.459 69.2655 104.442 68.912 104.415 68.3028C104.388 67.6991 104.377 67.264 104.382 67.0029V61.7979H105.368V70.8646V70.8755Z" fill="white"/>
<path d="M107.737 70.8753V61.8086H108.793V69.9181H112.795V70.8753H107.737Z" fill="white"/>
<path d="M114.461 70.8753V61.8086H115.518V70.8753H114.461Z" fill="white"/>
<path d="M124.714 70.8755H123.511L118.55 63.2664H118.501C118.567 64.1584 118.599 64.9796 118.599 65.7193V70.87H117.625V61.8033H118.817L123.767 69.3797H123.816C123.805 69.2655 123.789 68.912 123.761 68.3028C123.734 67.6991 123.723 67.264 123.729 67.0029V61.7979H124.714V70.8646V70.8755Z" fill="white"/>
<path d="M131.886 70.8753H126.827V61.8086H131.886V62.7441H127.883V65.6648H131.646V66.5949H127.883V69.9289H131.886V70.8699V70.8753Z" fill="white"/>
<path d="M142.699 64.4519C142.699 65.3711 142.384 66.0782 141.757 66.5677C141.131 67.0626 140.233 67.3074 139.068 67.3074H138V70.8753H136.944V61.8086H139.296C141.561 61.8086 142.699 62.6897 142.699 64.4519ZM138 66.4045H138.948C139.884 66.4045 140.56 66.2522 140.979 65.9531C141.398 65.6539 141.605 65.1699 141.605 64.5009C141.605 63.9026 141.409 63.4566 141.017 63.1629C140.625 62.8692 140.01 62.7223 139.182 62.7223H138V66.4045Z" fill="white"/>
<path d="M145.275 67.1061V70.8753H144.219V61.8086H146.707C147.818 61.8086 148.64 62.0207 149.174 62.4449C149.707 62.8692 149.969 63.511 149.969 64.3649C149.969 65.5615 149.359 66.3719 148.145 66.7961L150.611 70.8699H149.364L147.164 67.1007H145.27L145.275 67.1061ZM145.275 66.2033H146.723C147.469 66.2033 148.014 66.0564 148.362 65.7573C148.711 65.4636 148.885 65.0176 148.885 64.4247C148.885 63.8319 148.711 63.3913 148.351 63.1303C147.998 62.8637 147.431 62.7332 146.647 62.7332H145.275V66.1978V66.2033Z" fill="white"/>
<path d="M160.244 68.4661C160.244 69.2656 159.955 69.8857 159.372 70.3317C158.795 70.7776 158.006 71.0006 157.015 71.0006C155.936 71.0006 155.109 70.8647 154.532 70.5873V69.5702C154.902 69.7279 155.31 69.853 155.746 69.94C156.187 70.0325 156.617 70.076 157.047 70.076C157.75 70.076 158.283 69.9401 158.637 69.6735C158.991 69.407 159.171 69.0372 159.171 68.5586C159.171 68.2431 159.105 67.9875 158.98 67.7862C158.855 67.585 158.643 67.4001 158.349 67.2315C158.055 67.0628 157.603 66.867 156.998 66.6549C156.154 66.3558 155.55 65.9968 155.19 65.5835C154.826 65.1701 154.646 64.6316 154.646 63.9626C154.646 63.2665 154.907 62.7063 155.436 62.2929C155.964 61.8795 156.655 61.6729 157.521 61.6729C158.387 61.6729 159.253 61.836 160.009 62.1678L159.683 63.087C158.931 62.7715 158.207 62.6138 157.499 62.6138C156.938 62.6138 156.503 62.7334 156.187 62.9728C155.871 63.2121 155.713 63.5439 155.713 63.9735C155.713 64.289 155.773 64.5446 155.887 64.7459C156.002 64.9471 156.198 65.132 156.476 65.2952C156.753 65.4638 157.172 65.6487 157.739 65.85C158.692 66.1872 159.345 66.5516 159.704 66.9432C160.064 67.3294 160.244 67.8352 160.244 68.4552V68.4661Z" fill="white"/>
<path d="M167.034 70.8753H161.975V61.8086H167.034V62.7441H163.031V65.6648H166.794V66.5949H163.031V69.9289H167.034V70.8699V70.8753Z" fill="white"/>
<path d="M170.23 67.1061V70.8753H169.173V61.8086H171.662C172.773 61.8086 173.595 62.0207 174.128 62.4449C174.662 62.8692 174.923 63.511 174.923 64.3649C174.923 65.5615 174.314 66.3719 173.099 66.7961L175.566 70.8699H174.319L172.119 67.1007H170.224L170.23 67.1061ZM170.23 66.2033H171.678C172.424 66.2033 172.969 66.0564 173.317 65.7573C173.666 65.4636 173.84 65.0176 173.84 64.4247C173.84 63.8319 173.666 63.3913 173.306 63.1303C172.952 62.8637 172.386 62.7332 171.602 62.7332H170.23V66.1978V66.2033Z" fill="white"/>
<path d="M182.089 61.8082H183.227L179.955 70.8749H178.909L175.659 61.8082H176.775L178.86 67.6714C179.1 68.3458 179.29 68.9985 179.432 69.6348C179.579 68.9658 179.775 68.2968 180.015 67.6333L182.089 61.8027V61.8082Z" fill="white"/>
<path d="M184.344 70.8753V61.8086H185.4V70.8753H184.344Z" fill="white"/>
<path d="M191.645 62.6245C190.649 62.6245 189.859 62.9563 189.282 63.6199C188.705 64.2834 188.416 65.1917 188.416 66.3448C188.416 67.4978 188.694 68.4496 189.249 69.0969C189.805 69.7441 190.6 70.065 191.629 70.065C192.261 70.065 192.985 69.9508 193.796 69.7224V70.647C193.165 70.8808 192.391 71.0005 191.466 71.0005C190.132 71.0005 189.097 70.598 188.373 69.7876C187.649 68.9772 187.284 67.8242 187.284 66.3339C187.284 65.3984 187.458 64.5825 187.807 63.8809C188.155 63.1793 188.661 62.6354 189.32 62.2547C189.979 61.874 190.758 61.6836 191.651 61.6836C192.604 61.6836 193.437 61.8576 194.145 62.2057L193.698 63.1086C193.012 62.7877 192.326 62.6245 191.634 62.6245H191.645Z" fill="white"/>
<path d="M200.717 70.8753H195.658V61.8086H200.717V62.7441H196.715V65.6648H200.477V66.5949H196.715V69.9289H200.717V70.8699V70.8753Z" fill="white"/>
<path d="M199.388 53.3449H90.8132C89.9202 53.3449 89.2014 52.6215 89.2014 51.7349C89.2014 50.8484 89.9256 50.125 90.8132 50.125H199.383C200.276 50.125 200.995 50.8484 200.995 51.7349C200.995 52.6215 200.27 53.3449 199.383 53.3449H199.388Z" fill="white"/>
</g>
<defs>
<clipPath id="clip0_197_988">
<rect width="201" height="71" fill="white"/>
</clipPath>
</defs>
</svg>
