<svg width="16" height="18" viewBox="0 0 16 18" fill="none" xmlns="http://www.w3.org/2000/svg">
<path d="M15.0893 6.137C14.5011 6.49712 14.0138 7.00059 13.6732 7.60029C13.3325 8.2 13.1495 8.87633 13.1413 9.566C13.1438 10.3426 13.374 11.1013 13.8035 11.7483C14.2329 12.3953 14.8427 12.9022 15.5573 13.206C15.2761 14.1148 14.859 14.9759 14.3203 15.76C13.5503 16.869 12.7453 17.976 11.5203 17.976C10.2953 17.976 9.98134 17.265 8.56834 17.265C7.19234 17.266 6.70234 18 5.58234 18C4.46234 18 3.68234 16.974 2.78234 15.714C1.59381 13.9499 0.940905 11.8797 0.902344 9.753C0.902344 6.254 3.17734 4.4 5.41734 4.4C6.60734 4.4 7.59934 5.181 8.34634 5.181C9.05734 5.181 10.1663 4.353 11.5203 4.353C12.2162 4.33508 12.9059 4.48861 13.5284 4.80007C14.151 5.11153 14.6874 5.57135 15.0903 6.139L15.0893 6.137ZM10.8773 2.869C11.4738 2.16752 11.8113 1.28251 11.8333 0.362C11.8358 0.240579 11.8254 0.119242 11.8023 0C10.7762 0.0986856 9.82698 0.587247 9.15034 1.365C8.54908 2.03809 8.19898 2.89833 8.15934 3.8C8.15985 3.90952 8.17124 4.01873 8.19334 4.126C8.27418 4.1408 8.35616 4.14849 8.43834 4.149C8.91047 4.11233 9.37019 3.97993 9.78951 3.75988C10.2088 3.53982 10.5789 3.23671 10.8773 2.869Z" fill="black"/>
</svg>
