<svg width="75" height="72" viewBox="0 0 75 72" fill="none" xmlns="http://www.w3.org/2000/svg">
<path d="M47.362 16.0285C48.312 15.7773 48.8744 14.8055 48.6232 13.861C48.3721 12.9111 47.4003 12.3487 46.4557 12.5999L20.1732 19.539C19.2233 19.7902 18.6609 20.762 18.9121 21.7065C19.1195 22.5036 19.8402 23.0277 20.6264 23.0277C20.7792 23.0277 20.9321 23.0113 21.0795 22.9676L47.362 16.0285Z" fill="#00758D"/>
<path d="M49.5787 24.1086C50.5286 23.8574 51.091 22.8856 50.8398 21.9411C50.5887 20.9911 49.6114 20.4288 48.6724 20.6799L22.3898 27.6191C21.4399 27.8702 20.8775 28.842 21.1287 29.7866C21.3361 30.5837 22.0568 31.1078 22.843 31.1078C22.9959 31.1078 23.1487 31.0914 23.2961 31.0477L49.5787 24.1086Z" fill="#00758D"/>
<path d="M50.8835 28.761L24.601 35.7001C23.651 35.9513 23.0886 36.9231 23.3398 37.8676C23.5473 38.6647 24.2679 39.1888 25.0541 39.1888C25.207 39.1888 25.3598 39.1725 25.5073 39.1288L51.7898 32.1896C52.7398 31.9385 53.3021 30.9667 53.0509 30.0222C52.7998 29.0722 51.828 28.5099 50.8835 28.761Z" fill="#00758D"/>
<path d="M74.5455 31.2829C74.5455 31.2229 74.54 31.1628 74.5291 31.1028C74.5182 31.0318 74.4964 30.9608 74.4745 30.8953C74.4581 30.8462 74.4472 30.797 74.4308 30.7479C74.3981 30.6605 74.3489 30.5786 74.2998 30.4967C74.2834 30.4694 74.2725 30.4422 74.2561 30.4149C74.1852 30.3111 74.1087 30.2183 74.0214 30.1364C74.0159 30.131 74.0104 30.12 74.005 30.1146L68.1687 24.6277C67.4535 23.9561 66.3288 23.9889 65.6573 24.7041C64.9857 25.4193 65.0185 26.544 65.7337 27.2155L69.9212 31.1519L69.0804 31.6979L64.3906 34.7443L62.0212 26.1072L55.2895 1.53355C55.0329 0.594502 54.0611 0.0376224 53.122 0.288764L31.158 6.08686L7.56162 12.3163C7.10301 12.4364 6.71538 12.7367 6.47516 13.1461C6.24039 13.5556 6.17488 14.047 6.30045 14.5001L9.16128 24.8843L8.53343 22.5967L0.556947 30.1146C0.556947 30.1146 0.546027 30.131 0.540568 30.1364C0.453214 30.2238 0.37132 30.3166 0.305805 30.4149C0.289426 30.4422 0.278507 30.4694 0.262128 30.4967C0.212992 30.5786 0.169315 30.6551 0.136557 30.7424C0.114719 30.7916 0.1038 30.8407 0.0928804 30.8898C0.071042 30.9608 0.0492035 31.0263 0.0382843 31.0973C0.0273651 31.1574 0.0219055 31.2174 0.0219055 31.2775C0.0219055 31.3211 0.0109863 31.3594 0.0109863 31.403V69.4128C0.0109863 69.4128 0.0109863 69.4456 0.0109863 69.4674C0.0109863 69.5329 0.0219055 69.593 0.0273651 69.6585C0.0328247 69.7131 0.0382843 69.7677 0.0546632 69.8168C0.0655824 69.8714 0.0874208 69.926 0.1038 69.9806C0.120178 70.0352 0.142017 70.0953 0.163855 70.1498C0.185694 70.199 0.212992 70.2427 0.24029 70.2863C0.273047 70.3409 0.305805 70.401 0.344022 70.4556C0.354941 70.472 0.360401 70.4829 0.37132 70.4993C0.387699 70.5211 0.409537 70.5375 0.431376 70.5593C0.485972 70.6248 0.546027 70.6849 0.611543 70.7449C0.64976 70.7777 0.682518 70.805 0.720735 70.8378C0.78625 70.8869 0.857225 70.9306 0.9282 70.9688C0.966417 70.9906 1.00463 71.0125 1.04285 71.0343C1.12475 71.0725 1.21756 71.0998 1.30491 71.1271C1.33767 71.138 1.36497 71.149 1.39773 71.1544C1.51784 71.1817 1.64887 71.1981 1.77444 71.1981H72.782C72.9131 71.1981 73.0386 71.1817 73.1587 71.1544C73.1915 71.149 73.2188 71.1326 73.2461 71.1271C73.3389 71.0998 73.4263 71.0725 73.5082 71.0343C73.5464 71.0179 73.5846 70.9906 73.6228 70.9742C73.6938 70.936 73.7648 70.8923 73.8303 70.8432C73.8685 70.8159 73.9012 70.7832 73.9395 70.7504C74.005 70.6958 74.065 70.6357 74.1196 70.5702C74.136 70.5484 74.1579 70.5375 74.1742 70.5156C74.1852 70.4993 74.1961 70.4829 74.207 70.4665C74.2452 70.4119 74.278 70.3573 74.3107 70.2972C74.338 70.2536 74.3653 70.2044 74.3872 70.1608C74.4145 70.1062 74.4308 70.0516 74.4527 69.9915C74.469 69.9369 74.4909 69.8823 74.5018 69.8277C74.5127 69.7731 74.5236 69.7185 74.5291 69.6639C74.54 69.5984 74.5455 69.5384 74.5455 69.4729C74.5455 69.451 74.5509 69.4346 74.5509 69.4128V31.4085C74.5509 31.3648 74.54 31.3266 74.54 31.2829H74.5455ZM11.8638 67.6384H6.99928L14.1022 62.1843C14.8775 61.5892 15.0249 60.47 14.4298 59.6947C13.8347 58.9194 12.7209 58.772 11.9402 59.3671L3.54881 65.8095V34.6788L15.276 42.295L26.1243 49.3378L36.3283 55.9658C36.6231 56.1569 36.9561 56.2497 37.2946 56.2497C37.6331 56.2497 37.9771 56.1514 38.2719 55.9549L46.1064 50.7792L67.6336 67.6384H11.8638ZM65.3788 38.3422L71.0077 34.6843V65.7712L47.3785 47.2632C47.0345 46.9902 46.6196 46.8756 46.2101 46.8974C45.8389 46.8756 45.4567 46.9629 45.1237 47.1813L37.2946 52.357L28.0624 46.3624L17.2142 39.3195L5.42145 31.6596L4.64073 31.1519L9.60897 26.4785L10.7009 30.4367C10.9193 31.2229 11.6345 31.7415 12.4097 31.7415C12.5681 31.7415 12.7264 31.7197 12.8847 31.676C13.8292 31.414 14.3861 30.4367 14.1241 29.4922L10.2095 15.2918L32.0698 9.52095L52.3304 4.17054L58.598 27.0463L61.2677 36.7753L59.1385 38.162C58.3141 38.6971 58.0848 39.7945 58.6198 40.6189C58.9583 41.143 59.5316 41.4269 60.1103 41.4269C60.4433 41.4269 60.7764 41.3341 61.0766 41.1375L62.2559 40.3677L65.3788 38.3367V38.3422Z" fill="#00758D"/>
</svg>
