<svg width="202" height="72" viewBox="0 0 202 72" fill="none" xmlns="http://www.w3.org/2000/svg">
<g clip-path="url(#clip0_197_952)">
<path d="M89.4392 24.2725H95.5212C98.2947 24.2725 100.304 24.6656 101.554 25.4572C102.804 26.2434 103.432 27.4991 103.432 29.2189C103.432 30.3872 103.159 31.3426 102.613 32.0906C102.067 32.8386 101.336 33.2863 100.429 33.4391V33.5702C101.669 33.8486 102.559 34.3618 103.11 35.1207C103.656 35.8796 103.929 36.8841 103.929 38.1399C103.929 39.9197 103.285 41.3119 101.996 42.311C100.708 43.3101 98.9608 43.8069 96.7496 43.8069H89.4392V24.2725ZM93.583 32.0087H95.9907C97.1154 32.0087 97.9234 31.834 98.4312 31.4901C98.9335 31.1406 99.1846 30.5674 99.1846 29.7648C99.1846 29.0169 98.9116 28.4818 98.3657 28.1542C97.8197 27.8267 96.9516 27.6683 95.7669 27.6683H93.5885V32.0087H93.583ZM93.583 35.2954V40.3838H96.2801C97.4211 40.3838 98.2619 40.1654 98.8024 39.7286C99.3429 39.2918 99.6159 38.6258 99.6159 37.7249C99.6159 36.1034 98.4585 35.2954 96.1436 35.2954H93.5776H93.583Z" fill="#00758D"/>
<path d="M120.057 43.807H106.402V40.9353L111.305 35.978C112.757 34.493 113.707 33.4611 114.149 32.8824C114.597 32.3091 114.914 31.7741 115.11 31.2882C115.307 30.7968 115.405 30.2891 115.405 29.7649C115.405 28.9788 115.187 28.4 114.755 28.0124C114.324 27.6302 113.745 27.4392 113.025 27.4392C112.266 27.4392 111.534 27.6139 110.819 27.9578C110.104 28.3072 109.361 28.7986 108.586 29.4428L106.342 26.784C107.303 25.9651 108.1 25.3863 108.733 25.0478C109.367 24.7093 110.055 24.4473 110.803 24.2671C111.551 24.087 112.386 23.9941 113.314 23.9941C114.532 23.9941 115.613 24.218 116.546 24.6602C117.48 25.1079 118.206 25.7303 118.725 26.5329C119.243 27.3354 119.5 28.2526 119.5 29.2845C119.5 30.1853 119.341 31.0261 119.025 31.8178C118.708 32.6039 118.217 33.412 117.556 34.2418C116.896 35.0717 115.722 36.251 114.051 37.7851L111.54 40.1491V40.3347H120.051V43.807H120.057Z" fill="#00758D"/>
<path d="M136.829 30.3654C136.829 32.4673 136.173 34.0779 134.858 35.1917C133.542 36.3054 131.675 36.8623 129.251 36.8623H127.471V43.8124H123.327V24.2725H129.567C131.937 24.2725 133.738 24.7802 134.972 25.8011C136.206 26.8221 136.823 28.3399 136.823 30.3654H136.829ZM127.476 33.4664H128.841C130.113 33.4664 131.069 33.2153 131.702 32.713C132.335 32.2107 132.652 31.4791 132.652 30.5128C132.652 29.5464 132.384 28.8258 131.855 28.3617C131.325 27.8976 130.495 27.6683 129.365 27.6683H127.482V33.4664H127.476Z" fill="#00758D"/>
<path d="M143.56 36.3109V43.8069H139.416V24.2725H145.111C147.764 24.2725 149.73 24.7584 151.002 25.7247C152.274 26.6911 152.913 28.1597 152.913 30.1252C152.913 31.2717 152.596 32.2981 151.963 33.1935C151.329 34.0888 150.434 34.7877 149.276 35.2954C152.214 39.6849 154.13 42.5239 155.02 43.8069H150.423L145.761 36.3109H143.555H143.56ZM143.56 32.9423H144.898C146.208 32.9423 147.175 32.7239 147.797 32.2872C148.419 31.8504 148.731 31.1625 148.731 30.2289C148.731 29.2953 148.414 28.6456 147.775 28.2525C147.136 27.8594 146.154 27.6629 144.816 27.6629H143.56V32.9423Z" fill="#00758D"/>
<path d="M169.018 43.8069H157.766V24.2725H169.018V27.6683H161.91V31.9596H168.522V35.3555H161.91V40.3947H169.018V43.8178V43.8069Z" fill="#00758D"/>
<path d="M185.195 38.3806C185.195 40.144 184.562 41.5362 183.29 42.5517C182.018 43.5672 180.254 44.075 177.994 44.075C175.908 44.075 174.063 43.6819 172.463 42.9012V39.0521C173.779 39.6418 174.898 40.0567 175.81 40.2969C176.722 40.5371 177.557 40.6573 178.316 40.6573C179.222 40.6573 179.921 40.4825 180.407 40.1386C180.893 39.7892 181.133 39.276 181.133 38.5881C181.133 38.2059 181.024 37.8619 180.811 37.5671C180.598 37.2668 180.282 36.9829 179.872 36.7045C179.457 36.4261 178.611 35.9893 177.339 35.3833C176.143 34.8209 175.248 34.2859 174.653 33.7672C174.058 33.2486 173.577 32.648 173.222 31.9656C172.867 31.2777 172.687 30.4806 172.687 29.5579C172.687 27.8326 173.271 26.4732 174.445 25.485C175.614 24.4968 177.235 24 179.304 24C180.32 24 181.292 24.1201 182.209 24.3603C183.131 24.6006 184.092 24.9391 185.102 25.3758L183.765 28.597C182.722 28.1711 181.859 27.8709 181.177 27.7016C180.495 27.5324 179.823 27.445 179.168 27.445C178.382 27.445 177.781 27.6252 177.366 27.991C176.946 28.3568 176.738 28.8317 176.738 29.4214C176.738 29.7872 176.82 30.1038 176.995 30.3768C177.164 30.6498 177.432 30.9119 177.803 31.163C178.174 31.4196 179.048 31.8727 180.429 32.5334C182.253 33.4069 183.508 34.2804 184.185 35.1594C184.862 36.0384 185.201 37.114 185.201 38.3861L185.195 38.3806Z" fill="#00758D"/>
<path d="M200.832 38.3806C200.832 40.144 200.198 41.5362 198.926 42.5517C197.654 43.5672 195.891 44.075 193.63 44.075C191.545 44.075 189.699 43.6819 188.1 42.9012V39.0521C189.415 39.6418 190.535 40.0567 191.446 40.2969C192.358 40.5371 193.194 40.6573 193.952 40.6573C194.859 40.6573 195.558 40.4825 196.043 40.1386C196.529 39.7892 196.77 39.276 196.77 38.5881C196.77 38.2059 196.66 37.8619 196.447 37.5671C196.235 37.2668 195.918 36.9829 195.508 36.7045C195.093 36.4261 194.247 35.9893 192.975 35.3833C191.779 34.8209 190.884 34.2859 190.289 33.7672C189.694 33.2486 189.213 32.648 188.859 31.9656C188.504 31.2777 188.324 30.4806 188.324 29.5579C188.324 27.8326 188.908 26.4732 190.082 25.485C191.25 24.4968 192.871 24 194.941 24C195.956 24 196.928 24.1201 197.845 24.3603C198.768 24.6006 199.729 24.9391 200.739 25.3758L199.401 28.597C198.358 28.1711 197.496 27.8709 196.813 27.7016C196.131 27.5324 195.459 27.445 194.804 27.445C194.018 27.445 193.417 27.6252 193.002 27.991C192.582 28.3568 192.375 28.8317 192.375 29.4214C192.375 29.7872 192.456 30.1038 192.631 30.3768C192.8 30.6498 193.068 30.9119 193.439 31.163C193.81 31.4196 194.684 31.8727 196.065 32.5334C197.889 33.4069 199.145 34.2804 199.821 35.1594C200.498 36.0384 200.837 37.114 200.837 38.3861L200.832 38.3806Z" fill="#00758D"/>
<path d="M47.362 16.0285C48.312 15.7773 48.8744 14.8055 48.6232 13.861C48.3721 12.9111 47.4003 12.3487 46.4557 12.5999L20.1732 19.539C19.2233 19.7902 18.6609 20.762 18.9121 21.7065C19.1195 22.5036 19.8402 23.0277 20.6264 23.0277C20.7792 23.0277 20.9321 23.0113 21.0795 22.9676L47.362 16.0285Z" fill="#00758D"/>
<path d="M49.5787 24.1086C50.5286 23.8574 51.091 22.8856 50.8398 21.9411C50.5887 20.9911 49.6114 20.4288 48.6724 20.6799L22.3898 27.6191C21.4399 27.8702 20.8775 28.842 21.1287 29.7866C21.3361 30.5837 22.0568 31.1078 22.843 31.1078C22.9959 31.1078 23.1487 31.0914 23.2961 31.0477L49.5787 24.1086Z" fill="#00758D"/>
<path d="M50.8835 28.761L24.601 35.7001C23.651 35.9513 23.0886 36.9231 23.3398 37.8676C23.5473 38.6647 24.2679 39.1888 25.0541 39.1888C25.207 39.1888 25.3598 39.1725 25.5073 39.1288L51.7898 32.1896C52.7398 31.9385 53.3021 30.9667 53.0509 30.0222C52.7998 29.0722 51.828 28.5099 50.8835 28.761Z" fill="#00758D"/>
<path d="M74.5455 31.2829C74.5455 31.2229 74.54 31.1628 74.5291 31.1028C74.5182 31.0318 74.4964 30.9608 74.4745 30.8953C74.4581 30.8462 74.4472 30.797 74.4308 30.7479C74.3981 30.6605 74.3489 30.5786 74.2998 30.4967C74.2834 30.4694 74.2725 30.4422 74.2561 30.4149C74.1852 30.3111 74.1087 30.2183 74.0214 30.1364C74.0159 30.131 74.0104 30.12 74.005 30.1146L68.1687 24.6277C67.4535 23.9561 66.3288 23.9889 65.6573 24.7041C64.9857 25.4193 65.0185 26.544 65.7337 27.2155L69.9212 31.1519L69.0804 31.6979L64.3906 34.7443L62.0212 26.1072L55.2895 1.53355C55.0329 0.594502 54.0611 0.0376224 53.122 0.288764L31.158 6.08686L7.56162 12.3163C7.10301 12.4364 6.71538 12.7367 6.47516 13.1461C6.24039 13.5556 6.17488 14.047 6.30045 14.5001L9.16128 24.8843L8.53343 22.5967L0.556947 30.1146C0.556947 30.1146 0.546027 30.131 0.540568 30.1364C0.453214 30.2238 0.37132 30.3166 0.305805 30.4149C0.289426 30.4422 0.278507 30.4694 0.262128 30.4967C0.212992 30.5786 0.169315 30.6551 0.136557 30.7424C0.114719 30.7916 0.1038 30.8407 0.0928804 30.8898C0.071042 30.9608 0.0492035 31.0263 0.0382843 31.0973C0.0273651 31.1574 0.0219055 31.2174 0.0219055 31.2775C0.0219055 31.3211 0.0109863 31.3594 0.0109863 31.403V69.4128C0.0109863 69.4128 0.0109863 69.4456 0.0109863 69.4674C0.0109863 69.5329 0.0219055 69.593 0.0273651 69.6585C0.0328247 69.7131 0.0382843 69.7677 0.0546632 69.8168C0.0655824 69.8714 0.0874208 69.926 0.1038 69.9806C0.120178 70.0352 0.142017 70.0953 0.163855 70.1498C0.185694 70.199 0.212992 70.2427 0.24029 70.2863C0.273047 70.3409 0.305805 70.401 0.344022 70.4556C0.354941 70.472 0.360401 70.4829 0.37132 70.4993C0.387699 70.5211 0.409537 70.5375 0.431376 70.5593C0.485972 70.6248 0.546027 70.6849 0.611543 70.7449C0.64976 70.7777 0.682518 70.805 0.720735 70.8378C0.78625 70.8869 0.857225 70.9306 0.9282 70.9688C0.966417 70.9906 1.00463 71.0125 1.04285 71.0343C1.12475 71.0725 1.21756 71.0998 1.30491 71.1271C1.33767 71.138 1.36497 71.149 1.39773 71.1544C1.51784 71.1817 1.64887 71.1981 1.77444 71.1981H72.782C72.9131 71.1981 73.0386 71.1817 73.1587 71.1544C73.1915 71.149 73.2188 71.1326 73.2461 71.1271C73.3389 71.0998 73.4263 71.0725 73.5082 71.0343C73.5464 71.0179 73.5846 70.9906 73.6228 70.9742C73.6938 70.936 73.7648 70.8923 73.8303 70.8432C73.8685 70.8159 73.9012 70.7832 73.9395 70.7504C74.005 70.6958 74.065 70.6357 74.1196 70.5702C74.136 70.5484 74.1579 70.5375 74.1742 70.5156C74.1852 70.4993 74.1961 70.4829 74.207 70.4665C74.2452 70.4119 74.278 70.3573 74.3107 70.2972C74.338 70.2536 74.3653 70.2044 74.3872 70.1608C74.4145 70.1062 74.4308 70.0516 74.4527 69.9915C74.469 69.9369 74.4909 69.8823 74.5018 69.8277C74.5127 69.7731 74.5236 69.7185 74.5291 69.6639C74.54 69.5984 74.5455 69.5384 74.5455 69.4729C74.5455 69.451 74.5509 69.4346 74.5509 69.4128V31.4085C74.5509 31.3648 74.54 31.3266 74.54 31.2829H74.5455ZM11.8638 67.6384H6.99928L14.1022 62.1843C14.8775 61.5892 15.0249 60.47 14.4298 59.6947C13.8347 58.9194 12.7209 58.772 11.9402 59.3671L3.54881 65.8095V34.6788L15.276 42.295L26.1243 49.3378L36.3283 55.9658C36.6231 56.1569 36.9561 56.2497 37.2946 56.2497C37.6331 56.2497 37.9771 56.1514 38.2719 55.9549L46.1064 50.7792L67.6336 67.6384H11.8638ZM65.3788 38.3422L71.0077 34.6843V65.7712L47.3785 47.2632C47.0345 46.9902 46.6196 46.8756 46.2101 46.8974C45.8389 46.8756 45.4567 46.9629 45.1237 47.1813L37.2946 52.357L28.0624 46.3624L17.2142 39.3195L5.42145 31.6596L4.64073 31.1519L9.60897 26.4785L10.7009 30.4367C10.9193 31.2229 11.6345 31.7415 12.4097 31.7415C12.5681 31.7415 12.7264 31.7197 12.8847 31.676C13.8292 31.414 14.3861 30.4367 14.1241 29.4922L10.2095 15.2918L32.0698 9.52095L52.3304 4.17054L58.598 27.0463L61.2677 36.7753L59.1385 38.162C58.3141 38.6971 58.0848 39.7945 58.6198 40.6189C58.9583 41.143 59.5316 41.4269 60.1103 41.4269C60.4433 41.4269 60.7764 41.3341 61.0766 41.1375L62.2559 40.3677L65.3788 38.3367V38.3422Z" fill="#00758D"/>
<path d="M96.8916 66.8142C96.8916 68.2719 96.5258 69.4185 95.7888 70.2483C95.0517 71.0836 94.0308 71.4986 92.715 71.4986C91.3992 71.4986 90.3401 71.0891 89.614 70.2701C88.8878 69.4512 88.522 68.2938 88.522 66.7978C88.522 65.3019 88.8878 64.1663 89.6194 63.3528C90.351 62.5394 91.3883 62.1299 92.7314 62.1299C94.0745 62.1299 95.0572 62.5448 95.7942 63.3747C96.5313 64.2045 96.8971 65.351 96.8971 66.8088L96.8916 66.8142ZM89.6413 66.8142C89.6413 68.0481 89.9033 68.9817 90.4274 69.6205C90.9516 70.2592 91.7159 70.5759 92.715 70.5759C93.7141 70.5759 94.4839 70.2592 94.9971 69.6259C95.5103 68.9926 95.7669 68.0536 95.7669 66.8197C95.7669 65.5858 95.5103 64.6686 94.9971 64.0353C94.4839 63.402 93.725 63.0853 92.7205 63.0853C91.7159 63.0853 90.9461 63.402 90.422 64.0407C89.8979 64.6795 89.6358 65.6022 89.6358 66.8197L89.6413 66.8142Z" fill="#00758D"/>
<path d="M105.649 71.3728H104.442L99.4685 63.7348H99.4194C99.4849 64.6302 99.5177 65.4546 99.5177 66.1971V71.3674H98.5404V62.2662H99.7361L104.699 69.8714H104.748C104.737 69.7568 104.721 69.4019 104.693 68.7904C104.666 68.1844 104.655 67.7476 104.661 67.4856V62.2607H105.649V71.3619V71.3728Z" fill="#00758D"/>
<path d="M108.024 71.3726V62.2715H109.083V70.4118H113.096V71.3726H108.024Z" fill="#00758D"/>
<path d="M114.766 71.3726V62.2715H115.826V71.3726H114.766Z" fill="#00758D"/>
<path d="M125.047 71.3728H123.84L118.866 63.7348H118.817C118.883 64.6302 118.916 65.4546 118.916 66.1971V71.3674H117.938V62.2662H119.134L124.097 69.8714H124.146C124.135 69.7568 124.119 69.4019 124.091 68.7904C124.064 68.1844 124.053 67.7476 124.059 67.4856V62.2607H125.047V71.3619V71.3728Z" fill="#00758D"/>
<path d="M132.237 71.3726H127.165V62.2715H132.237V63.2105H128.224V66.1423H131.997V67.0759H128.224V70.4227H132.237V71.3672V71.3726Z" fill="#00758D"/>
<path d="M143.08 64.9249C143.08 65.8475 142.763 66.5573 142.135 67.0486C141.507 67.5455 140.607 67.7911 139.438 67.7911H138.368V71.3726H137.309V62.2715H139.668C141.939 62.2715 143.08 63.1559 143.08 64.9249ZM138.368 66.8848H139.318C140.257 66.8848 140.934 66.732 141.355 66.4317C141.775 66.1314 141.982 65.6455 141.982 64.974C141.982 64.3734 141.786 63.9257 141.393 63.6309C141 63.3361 140.383 63.1887 139.553 63.1887H138.368V66.8848Z" fill="#00758D"/>
<path d="M145.662 67.5891V71.3726H144.603V62.2715H147.098C148.212 62.2715 149.036 62.4844 149.571 62.9103C150.106 63.3361 150.368 63.9803 150.368 64.8375C150.368 66.0386 149.757 66.8521 148.539 67.2779L151.013 71.3672H149.762L147.557 67.5837H145.657L145.662 67.5891ZM145.662 66.6828H147.115C147.862 66.6828 148.408 66.5354 148.758 66.2352C149.107 65.9403 149.282 65.4926 149.282 64.8976C149.282 64.3025 149.107 63.8602 148.747 63.5982C148.392 63.3306 147.824 63.1996 147.038 63.1996H145.662V66.6774V66.6828Z" fill="#00758D"/>
<path d="M160.671 68.9548C160.671 69.7573 160.381 70.3797 159.797 70.8274C159.218 71.2751 158.427 71.499 157.433 71.499C156.352 71.499 155.522 71.3625 154.944 71.084V70.0631C155.315 70.2214 155.724 70.347 156.161 70.4343C156.603 70.5272 157.035 70.5708 157.466 70.5708C158.17 70.5708 158.705 70.4343 159.06 70.1668C159.415 69.8993 159.595 69.528 159.595 69.0476C159.595 68.7309 159.53 68.4743 159.404 68.2723C159.278 68.0703 159.066 67.8847 158.771 67.7155C158.476 67.5462 158.023 67.3497 157.417 67.1367C156.571 66.8365 155.965 66.4761 155.604 66.0612C155.238 65.6463 155.058 65.1058 155.058 64.4342C155.058 63.7354 155.32 63.1731 155.85 62.7581C156.379 62.3432 157.073 62.1357 157.941 62.1357C158.809 62.1357 159.677 62.2995 160.436 62.6326L160.108 63.5552C159.355 63.2386 158.629 63.0803 157.919 63.0803C157.357 63.0803 156.92 63.2004 156.603 63.4406C156.287 63.6808 156.128 64.0138 156.128 64.4452C156.128 64.7618 156.188 65.0184 156.303 65.2204C156.418 65.4224 156.614 65.6081 156.893 65.7718C157.171 65.9411 157.591 66.1267 158.159 66.3287C159.115 66.6672 159.77 67.033 160.13 67.4261C160.49 67.8137 160.671 68.3215 160.671 68.9439V68.9548Z" fill="#00758D"/>
<path d="M167.479 71.3726H162.407V62.2715H167.479V63.2105H163.466V66.1423H167.239V67.0759H163.466V70.4227H167.479V71.3672V71.3726Z" fill="#00758D"/>
<path d="M170.684 67.5891V71.3726H169.624V62.2715H172.119C173.233 62.2715 174.058 62.4844 174.593 62.9103C175.128 63.3361 175.39 63.9803 175.39 64.8375C175.39 66.0386 174.778 66.8521 173.561 67.2779L176.034 71.3672H174.784L172.578 67.5837H170.678L170.684 67.5891ZM170.684 66.6828H172.136C172.884 66.6828 173.43 66.5354 173.779 66.2352C174.129 65.9403 174.303 65.4926 174.303 64.8976C174.303 64.3025 174.129 63.8602 173.768 63.5982C173.413 63.3306 172.846 63.1996 172.059 63.1996H170.684V66.6774V66.6828Z" fill="#00758D"/>
<path d="M182.575 62.2721H183.716L180.434 71.3732H179.386L176.127 62.2721H177.246L179.337 68.1575C179.577 68.8345 179.768 69.4897 179.91 70.1284C180.058 69.4569 180.254 68.7854 180.495 68.1193L182.575 62.2666V62.2721Z" fill="#00758D"/>
<path d="M184.835 71.3726V62.2715H185.894V71.3726H184.835Z" fill="#00758D"/>
<path d="M192.156 63.091C191.157 63.091 190.365 63.424 189.787 64.0901C189.208 64.7562 188.919 65.6679 188.919 66.8254C188.919 67.9828 189.197 68.9382 189.754 69.5879C190.311 70.2376 191.108 70.5597 192.14 70.5597C192.773 70.5597 193.499 70.4451 194.313 70.2158V71.1439C193.679 71.3787 192.904 71.4988 191.976 71.4988C190.638 71.4988 189.601 71.0948 188.875 70.2813C188.149 69.4678 187.783 68.3104 187.783 66.8144C187.783 65.8754 187.958 65.0564 188.307 64.3522C188.657 63.6479 189.164 63.1019 189.825 62.7197C190.486 62.3376 191.266 62.1465 192.162 62.1465C193.117 62.1465 193.952 62.3212 194.662 62.6706L194.214 63.5769C193.527 63.2548 192.839 63.091 192.145 63.091H192.156Z" fill="#00758D"/>
<path d="M201.252 71.3726H196.18V62.2715H201.252V63.2105H197.239V66.1423H201.012V67.0759H197.239V70.4227H201.252V71.3672V71.3726Z" fill="#00758D"/>
<path d="M199.92 53.776H91.0552C90.1599 53.776 89.4392 53.0499 89.4392 52.16C89.4392 51.2701 90.1653 50.5439 91.0552 50.5439H199.914C200.81 50.5439 201.53 51.2701 201.53 52.16C201.53 53.0499 200.804 53.776 199.914 53.776H199.92Z" fill="#00758D"/>
</g>
<defs>
<clipPath id="clip0_197_952">
<rect width="201.536" height="71.2697" fill="white" transform="translate(0 0.228516)"/>
</clipPath>
</defs>
</svg>
