<svg id="Layer_5" data-name="Layer 5" xmlns="http://www.w3.org/2000/svg" viewBox="0 0 773.84 284.46"><defs><style>.cls-1{fill:#fff;}</style></defs><path class="cls-1" d="M335.68,97.87H357.9q15.19,0,22.07,4.33T386.83,116a17.25,17.25,0,0,1-3,10.5,12,12,0,0,1-8,4.94v.49q6.78,1.51,9.79,5.66t3,11q0,9.78-7.06,15.25T362.4,169.3H335.68Zm15.14,28.29h8.8c4.1,0,7.07-.63,8.91-1.91s2.76-3.37,2.76-6.3c0-2.73-1-4.7-3-5.88s-5.18-1.79-9.51-1.79h-8Zm0,12v18.61h9.87c4.17,0,7.25-.79,9.23-2.39s3-4,3-7.33q0-8.9-12.7-8.89Z"/><path class="cls-1" d="M447.62,169.3H397.69V158.8l17.93-18.13q8-8.16,10.41-11.31a25,25,0,0,0,3.52-5.84,15,15,0,0,0,1.07-5.57c0-2.86-.79-5-2.37-6.4a9.2,9.2,0,0,0-6.33-2.1,18.24,18.24,0,0,0-8.06,1.91,41.81,41.81,0,0,0-8.15,5.42l-8.21-9.72a53.66,53.66,0,0,1,8.74-6.35,32.05,32.05,0,0,1,7.58-2.86,38.59,38.59,0,0,1,9.18-1,27.17,27.17,0,0,1,11.82,2.44,18.91,18.91,0,0,1,8,6.84,18.24,18.24,0,0,1,2.83,10.06,24.56,24.56,0,0,1-1.74,9.26,35.31,35.31,0,0,1-5.37,8.87,131.55,131.55,0,0,1-12.82,13l-9.19,8.64v.69h31.12Z"/><path class="cls-1" d="M508.93,120.15q0,11.53-7.2,17.64t-20.5,6.1h-6.49V169.3H459.59V97.87h22.82q13,0,19.76,5.59T508.93,120.15Zm-34.19,11.33h5q7,0,10.45-2.76c2.32-1.84,3.47-4.52,3.47-8s-1-6.18-2.91-7.87-5-2.54-9.11-2.54h-6.88Z"/><path class="cls-1" d="M533.56,141.89V169.3H518.42V97.87h20.81q14.55,0,21.54,5.3t7,16.1a19,19,0,0,1-3.47,11.21,23,23,0,0,1-9.82,7.7q16.13,24.07,21,31.12H558.67l-17-27.41Zm0-12.31h4.89q7.18,0,10.6-2.4t3.42-7.52q0-5.09-3.5-7.23t-10.82-2.15h-4.59Z"/><path class="cls-1" d="M626.64,169.3H585.5V97.87h41.14v12.41h-26V126h24.18v12.41H600.65v18.42h26Z"/><path class="cls-1" d="M685.77,149.46q0,9.67-7,15.24t-19.37,5.57a45.41,45.41,0,0,1-20.22-4.3V151.9a83,83,0,0,0,12.23,4.55,36.19,36.19,0,0,0,9.16,1.32c3.33,0,5.87-.64,7.65-1.91a6.51,6.51,0,0,0,2.66-5.67,6.24,6.24,0,0,0-1.17-3.73,13.16,13.16,0,0,0-3.44-3.15,88.88,88.88,0,0,0-9.26-4.84,43.6,43.6,0,0,1-9.82-5.91A22,22,0,0,1,642,126a18.83,18.83,0,0,1-2-8.79q0-9.48,6.42-14.9t17.76-5.43a41.82,41.82,0,0,1,10.62,1.32,72.34,72.34,0,0,1,10.58,3.72l-4.88,11.77a72.14,72.14,0,0,0-9.46-3.27,30.34,30.34,0,0,0-7.35-.93c-2.87,0-5.06.67-6.59,2a6.59,6.59,0,0,0-2.3,5.23,6.43,6.43,0,0,0,.93,3.49,10,10,0,0,0,3,2.89,93.2,93.2,0,0,0,9.6,5q10,4.8,13.73,9.6A18.77,18.77,0,0,1,685.77,149.46Z"/><path class="cls-1" d="M743,149.46q0,9.67-7,15.24t-19.37,5.57A45.41,45.41,0,0,1,696.4,166V151.9a83,83,0,0,0,12.23,4.55,36.19,36.19,0,0,0,9.16,1.32c3.33,0,5.87-.64,7.65-1.91a6.53,6.53,0,0,0,2.66-5.67,6.24,6.24,0,0,0-1.17-3.73,13.16,13.16,0,0,0-3.44-3.15,88.88,88.88,0,0,0-9.26-4.84,43.6,43.6,0,0,1-9.82-5.91,22,22,0,0,1-5.23-6.6,18.83,18.83,0,0,1-1.95-8.79q0-9.48,6.42-14.9t17.76-5.43A41.87,41.87,0,0,1,732,98.16a72.34,72.34,0,0,1,10.58,3.72l-4.88,11.77a72.14,72.14,0,0,0-9.46-3.27,30.34,30.34,0,0,0-7.35-.93q-4.3,0-6.6,2a6.62,6.62,0,0,0-2.29,5.23,6.43,6.43,0,0,0,.93,3.49,10,10,0,0,0,2.95,2.89,93.2,93.2,0,0,0,9.6,5q10,4.8,13.73,9.6A18.77,18.77,0,0,1,743,149.46Z"/><path class="cls-1" d="M181.84,67.73a6.49,6.49,0,0,0-3.32-12.55L82.42,80.55a6.49,6.49,0,0,0,1.65,12.77,6.31,6.31,0,0,0,1.66-.22Z"/><path class="cls-1" d="M189.93,97.29a6.49,6.49,0,0,0-3.31-12.56l-96.1,25.38a6.49,6.49,0,0,0,1.65,12.77,6.31,6.31,0,0,0,1.66-.22Z"/><path class="cls-1" d="M194.72,114.29l-96.1,25.38a6.49,6.49,0,0,0,1.65,12.76,6.74,6.74,0,0,0,1.66-.21L198,126.84a6.49,6.49,0,1,0-3.31-12.55Z"/><path class="cls-1" d="M281.22,123.5c0-.22,0-.44-.07-.66a5,5,0,0,0-.2-.76,4.81,4.81,0,0,0-.16-.54,7.1,7.1,0,0,0-.47-.91c-.06-.1-.1-.21-.16-.3a7.1,7.1,0,0,0-.87-1,.27.27,0,0,0-.07-.08L257.89,99.17a6.49,6.49,0,1,0-8.89,9.46L264.31,123l-3.07,2L244.1,136.16l-8.66-31.58L210.82,14.74a6.49,6.49,0,0,0-7.92-4.56L122.58,31.39,36.32,54.17a6.49,6.49,0,0,0-4.6,8l10.46,38-2.3-8.36L10.71,119.23s0,.06-.07.08a6.45,6.45,0,0,0-.86,1c-.07.1-.11.21-.17.3a7,7,0,0,0-.46.91,5.6,5.6,0,0,0-.17.54,6.2,6.2,0,0,0-.2.77,4.62,4.62,0,0,0-.06.66c0,.15-.05.29-.05.45v139c0,.07,0,.13,0,.2,0,.23,0,.46.07.69s.05.39.09.59A5.8,5.8,0,0,0,9,265a6.56,6.56,0,0,0,.23.62,4.08,4.08,0,0,0,.27.5,5.6,5.6,0,0,0,.38.61,1.29,1.29,0,0,0,.09.16l.22.22a5.22,5.22,0,0,0,.66.67l.4.34a6.52,6.52,0,0,0,.76.48c.14.07.28.16.43.23a6.28,6.28,0,0,0,.95.33l.34.11a6.37,6.37,0,0,0,1.39.15H274.77a6.21,6.21,0,0,0,1.38-.15c.11,0,.22-.07.33-.1a6,6,0,0,0,1-.33c.15-.07.28-.16.43-.23a7.34,7.34,0,0,0,.75-.48,4.12,4.12,0,0,0,.4-.33,5.07,5.07,0,0,0,.65-.66,2,2,0,0,0,.21-.2c.05-.06.07-.13.11-.18a5.7,5.7,0,0,0,.39-.61c.1-.17.19-.33.27-.5s.16-.41.24-.62.13-.39.18-.6a5.58,5.58,0,0,0,.1-.59c0-.23.06-.46.07-.69,0-.07,0-.14,0-.22V124C281.26,123.8,281.23,123.66,281.22,123.5ZM52,256.42H34.27l26-20a6.49,6.49,0,1,0-7.91-10.29L21.65,249.74V135.92l42.88,27.84,39.66,25.75,37.31,24.24a6.53,6.53,0,0,0,7.12,0l28.63-18.93L256,256.42ZM247.7,149.3l20.58-13.38V249.59l-86.4-67.67a7.7,7.7,0,0,0-8.24-.3L145,200.54l-33.74-21.91L71.6,152.88l-43.12-28L25.63,123l18.15-17.09,4,14.48A6.51,6.51,0,0,0,54,125.18a6.36,6.36,0,0,0,1.72-.23,6.49,6.49,0,0,0,4.54-8L46,65l79.92-21.1L200,24.37,222.92,108l9.75,35.58-7.79,5.06A6.49,6.49,0,1,0,232,159.54l4.31-2.81Z"/><path class="cls-1" d="M362.93,253.41q0,8-4,12.56t-11.23,4.57q-7.35,0-11.35-4.49t-4-12.69c0-5.42,1.33-9.61,4-12.6s6.46-4.47,11.37-4.47,8.51,1.52,11.2,4.55S362.93,248.07,362.93,253.41Zm-26.52,0q0,6.75,2.88,10.25t8.37,3.49c3.68,0,6.47-1.16,8.35-3.48s2.82-5.74,2.82-10.26-.94-7.87-2.81-10.19-4.65-3.47-8.32-3.47-6.49,1.17-8.41,3.49S336.41,249,336.41,253.41Z"/><path class="cls-1" d="M394.94,270.09h-4.42l-18.18-27.93h-.18c.24,3.28.36,6.28.36,9v18.91H369V236.82h4.37l18.13,27.8h.19c0-.41-.1-1.72-.21-3.94s-.14-3.82-.11-4.77V236.82h3.62Z"/><path class="cls-1" d="M403.62,270.09V236.82h3.87v29.76h14.68v3.51Z"/><path class="cls-1" d="M428.28,270.09V236.82h3.87v33.27Z"/><path class="cls-1" d="M465.86,270.09h-4.41l-18.19-27.93h-.18c.24,3.28.37,6.28.37,9v18.91h-3.58V236.82h4.37l18.14,27.8h.18c0-.41-.1-1.72-.2-3.94s-.15-3.82-.12-4.77V236.82h3.62Z"/><path class="cls-1" d="M492.16,270.09H473.61V236.82h18.55v3.43H477.48V251h13.79v3.41H477.48v12.25h14.68Z"/><path class="cls-1" d="M531.8,246.51a9.31,9.31,0,0,1-3.45,7.77Q524.9,257,518.49,257h-3.92v13.09H510.7V236.82h8.63Q531.79,236.82,531.8,246.51Zm-17.23,7.17h3.49q5.13,0,7.44-1.66t2.3-5.33a5.7,5.7,0,0,0-2.17-4.91q-2.16-1.62-6.73-1.62h-4.33Z"/><path class="cls-1" d="M541.24,256.25v13.84h-3.87V236.82h9.12q6.12,0,9,2.34t2.92,7.05q0,6.6-6.69,8.92l9,15h-4.58l-8.05-13.84Zm0-3.32h5.3q4.1,0,6-1.63a6,6,0,0,0,1.92-4.88q0-3.3-2-4.76t-6.25-1.45h-5Z"/><path class="cls-1" d="M596.13,261.23a8.16,8.16,0,0,1-3.19,6.85c-2.12,1.64-5,2.46-8.65,2.46-3.94,0-7-.51-9.1-1.52v-3.74a23.27,23.27,0,0,0,4.46,1.37,23.74,23.74,0,0,0,4.78.5,9.6,9.6,0,0,0,5.82-1.47,4.8,4.8,0,0,0,2-4.08,5.31,5.31,0,0,0-.69-2.84,6.57,6.57,0,0,0-2.32-2,33.22,33.22,0,0,0-5-2.12,15.81,15.81,0,0,1-6.64-3.94,8.7,8.7,0,0,1-2-5.94,7.38,7.38,0,0,1,2.89-6.12,12.07,12.07,0,0,1,7.65-2.27,22.37,22.37,0,0,1,9.12,1.82l-1.2,3.37a20.53,20.53,0,0,0-8-1.73,7.74,7.74,0,0,0-4.8,1.32,4.33,4.33,0,0,0-1.73,3.66,5.65,5.65,0,0,0,.63,2.83,6.05,6.05,0,0,0,2.15,2,27.91,27.91,0,0,0,4.63,2c3.49,1.24,5.9,2.58,7.21,4A7.9,7.9,0,0,1,596.13,261.23Z"/><path class="cls-1" d="M621,270.09H602.46V236.82H621v3.43H606.33V251h13.79v3.41H606.33v12.25H621Z"/><path class="cls-1" d="M632.72,256.25v13.84h-3.87V236.82H638q6.12,0,9,2.34t2.93,7.05q0,6.6-6.69,8.92l9,15h-4.57l-8.06-13.84Zm0-3.32H638q4.1,0,6-1.63a6.06,6.06,0,0,0,1.91-4.88q0-3.3-2-4.76t-6.24-1.45h-5Z"/><path class="cls-1" d="M676.2,236.82h4.16l-12,33.27h-3.82l-11.93-33.27h4.1l7.64,21.52a61.5,61.5,0,0,1,2.1,7.22,58.89,58.89,0,0,1,2.14-7.35Z"/><path class="cls-1" d="M684.47,270.09V236.82h3.87v33.27Z"/><path class="cls-1" d="M711.24,239.8a10.88,10.88,0,0,0-8.66,3.65q-3.17,3.65-3.17,10,0,6.54,3.06,10.09t8.73,3.57a29.59,29.59,0,0,0,7.94-1.26v3.39a24.34,24.34,0,0,1-8.53,1.3q-7.35,0-11.35-4.46t-4-12.67a20.07,20.07,0,0,1,1.92-9,13.8,13.8,0,0,1,5.55-6,16.87,16.87,0,0,1,8.55-2.09,20.55,20.55,0,0,1,9.15,1.91l-1.64,3.32A17.69,17.69,0,0,0,711.24,239.8Z"/><path class="cls-1" d="M744.48,270.09H725.93V236.82h18.55v3.43H729.8V251h13.79v3.41H729.8v12.25h14.68Z"/><path class="cls-1" d="M739.61,205.75h-398a5.92,5.92,0,0,1,0-11.83h398a5.92,5.92,0,1,1,0,11.83Z"/></svg>